<svg xmlns="http://www.w3.org/2000/svg" xmlns:xlink="http://www.w3.org/1999/xlink" width="500" zoomAndPan="magnify" viewBox="0 0 375 374.999991" height="500" preserveAspectRatio="xMidYMid meet" version="1.0"><defs><clipPath id="1f50b0b2fb"><path d="M 37.5 37.5 L 332 37.5 L 332 332 L 37.5 332 Z M 37.5 37.5 " clip-rule="nonzero"/></clipPath><clipPath id="c843e1861c"><path d="M 54.75 37.5 L 314.742188 37.5 C 319.316406 37.5 323.703125 39.316406 326.941406 42.550781 C 330.175781 45.789062 331.992188 50.175781 331.992188 54.75 L 331.992188 314.742188 C 331.992188 319.316406 330.175781 323.703125 326.941406 326.941406 C 323.703125 330.175781 319.316406 331.992188 314.742188 331.992188 L 54.75 331.992188 C 50.175781 331.992188 45.789062 330.175781 42.550781 326.941406 C 39.316406 323.703125 37.5 319.316406 37.5 314.742188 L 37.5 54.75 C 37.5 50.175781 39.316406 45.789062 42.550781 42.550781 C 45.789062 39.316406 50.175781 37.5 54.75 37.5 " clip-rule="nonzero"/></clipPath><clipPath id="017aae3b6e"><path d="M 59.453125 42.164062 L 309.953125 42.164062 L 309.953125 327.164062 L 59.453125 327.164062 Z M 59.453125 42.164062 " clip-rule="nonzero"/></clipPath></defs><rect x="-37.5" width="450" fill="#ffffff" y="-37.499999" height="449.999989" fill-opacity="1"/><rect x="-37.5" width="450" fill="#ffffff" y="-37.499999" height="449.999989" fill-opacity="1"/><rect x="-37.5" width="450" fill="#17181c" y="-37.499999" height="449.999989" fill-opacity="1"/><g clip-path="url(#1f50b0b2fb)"><g clip-path="url(#c843e1861c)"><path fill="#17181c" d="M 37.5 37.5 L 331.082031 37.5 L 331.082031 331.082031 L 37.5 331.082031 Z M 37.5 37.5 " fill-opacity="1" fill-rule="nonzero"/></g></g><g clip-path="url(#017aae3b6e)"><path fill="#eeeeee" d="M 124.03125 42.164062 C 115.742188 42.164062 109.808594 43.890625 105.828125 45.808594 C 103.839844 46.769531 102.335938 47.769531 101.273438 48.597656 C 100.214844 49.421875 99.335938 50.3125 99.5 50.160156 C 72.734375 74.945312 59.546875 106.378906 59.546875 144.953125 C 59.546875 175.925781 69.066406 201.03125 88.113281 219.4375 C 106.492188 237.199219 132.113281 246.308594 163.84375 246.964844 L 163.84375 315 C 163.84375 317.246094 164.894531 319.261719 166.308594 320.761719 C 167.71875 322.261719 169.503906 323.390625 171.550781 324.3125 C 175.640625 326.15625 180.851562 327.164062 186.554688 327.164062 C 192.257812 327.164062 197.414062 326.15625 201.457031 324.304688 C 203.480469 323.378906 205.246094 322.238281 206.632812 320.734375 C 208.019531 319.230469 209.035156 317.21875 209.035156 315 L 209.035156 246.953125 C 238.59375 246.25 263.089844 237.152344 281.429688 219.285156 C 300.503906 200.707031 309.855469 176.292969 309.855469 146.871094 C 309.855469 115.40625 302.242188 89.878906 286.285156 70.835938 C 270.375 51.84375 249.1875 42.164062 223.710938 42.164062 C 205.226562 42.164062 190.226562 46.457031 179.777344 55.527344 C 169.328125 64.601562 163.84375 78.304688 163.84375 95.703125 L 163.84375 205.300781 C 148.355469 204.777344 133.949219 200.867188 123.035156 190.609375 C 110.976562 179.28125 104.742188 163.648438 104.742188 142.867188 C 104.742188 112.242188 118.269531 93.257812 140.492188 65.480469 C 141.976562 63.628906 143.359375 62.007812 144.492188 60.316406 C 145.625 58.621094 146.621094 56.726562 146.621094 54.390625 C 146.621094 51.953125 145.320312 48.683594 141.78125 46.230469 C 138.246094 43.777344 132.75 42.164062 124.03125 42.164062 Z M 124.03125 49.113281 C 131.871094 49.113281 135.933594 50.640625 137.816406 51.945312 C 139.699219 53.25 139.671875 54.347656 139.671875 54.390625 C 139.671875 54.582031 139.5 55.265625 138.707031 56.453125 C 137.910156 57.640625 136.609375 59.210938 135.066406 61.136719 C 112.730469 89.058594 97.789062 110.160156 97.789062 142.867188 C 97.789062 165.066406 104.734375 182.953125 118.273438 195.671875 C 131.683594 208.273438 149.414062 212.46875 167.320312 212.46875 C 167.78125 212.46875 168.222656 212.378906 168.648438 212.203125 C 169.074219 212.027344 169.449219 211.777344 169.777344 211.449219 C 170.101562 211.125 170.355469 210.75 170.53125 210.320312 C 170.707031 209.894531 170.796875 209.453125 170.796875 208.992188 L 170.796875 95.703125 C 170.796875 79.726562 175.566406 68.394531 184.339844 60.777344 C 193.117188 53.160156 206.308594 49.113281 223.710938 49.113281 C 247.464844 49.113281 266.222656 57.71875 280.957031 75.304688 C 295.648438 92.839844 302.902344 116.519531 302.902344 146.871094 C 302.902344 174.847656 294.304688 197.039062 276.582031 214.300781 C 258.875 231.550781 235.378906 240.269531 205.558594 240.273438 C 205.097656 240.273438 204.65625 240.359375 204.230469 240.539062 C 203.804688 240.714844 203.429688 240.964844 203.101562 241.289062 C 202.777344 241.617188 202.523438 241.992188 202.347656 242.417969 C 202.171875 242.84375 202.082031 243.289062 202.082031 243.75 L 202.082031 315 C 202.082031 315.179688 202.050781 315.449219 201.519531 316.023438 C 200.992188 316.597656 199.976562 317.339844 198.566406 317.984375 C 195.746094 319.277344 191.402344 320.210938 186.554688 320.210938 C 181.707031 320.210938 177.296875 319.273438 174.40625 317.972656 C 172.964844 317.320312 171.917969 316.578125 171.371094 315.996094 C 170.824219 315.414062 170.796875 315.152344 170.796875 315 L 170.796875 243.75 C 170.796875 243.289062 170.707031 242.84375 170.53125 242.417969 C 170.355469 241.992188 170.101562 241.617188 169.777344 241.289062 C 169.449219 240.964844 169.074219 240.714844 168.648438 240.539062 C 168.222656 240.359375 167.78125 240.273438 167.320312 240.273438 C 135.183594 240.273438 110.539062 231.449219 92.941406 214.441406 C 75.316406 197.414062 66.5 174.523438 66.5 144.953125 C 66.5 107.9375 78.75 78.851562 104.21875 55.265625 C 104.222656 55.261719 104.222656 55.261719 104.226562 55.257812 C 104.734375 54.785156 104.828125 54.640625 105.542969 54.082031 C 106.257812 53.527344 107.332031 52.804688 108.851562 52.074219 C 111.882812 50.613281 116.699219 49.113281 124.03125 49.113281 Z M 224.613281 73.464844 C 217.996094 73.289062 212.363281 75.390625 208.492188 79.457031 C 204.070312 84.105469 202.082031 90.851562 202.082031 98.609375 L 202.082031 208.992188 C 202.082031 209.453125 202.171875 209.894531 202.347656 210.320312 C 202.523438 210.75 202.777344 211.125 203.101562 211.449219 C 203.429688 211.777344 203.804688 212.027344 204.230469 212.203125 C 204.65625 212.378906 205.097656 212.46875 205.558594 212.46875 L 211.277344 212.46875 C 228.777344 212.46875 243.59375 206.148438 254.855469 193.765625 C 266.175781 181.316406 271.609375 164.414062 271.613281 143.722656 C 271.613281 123.292969 267.609375 106.480469 259.050781 93.53125 C 250.410156 80.457031 238.203125 74.976562 227.503906 73.679688 C 226.523438 73.5625 225.558594 73.488281 224.613281 73.464844 Z M 224.410156 80.402344 C 225.128906 80.429688 225.882812 80.488281 226.671875 80.585938 C 235.730469 81.679688 245.757812 86.019531 253.253906 97.359375 C 260.832031 108.828125 264.660156 124.199219 264.660156 143.722656 C 264.65625 163.214844 259.679688 178.121094 249.707031 189.089844 C 239.664062 200.132812 227.152344 205.515625 211.277344 205.515625 L 209.035156 205.515625 L 209.035156 98.609375 C 209.035156 92.042969 210.726562 87.191406 213.523438 84.25 C 215.972656 81.679688 219.375 80.214844 224.410156 80.402344 Z M 186.414062 240.246094 C 186.183594 240.25 185.960938 240.296875 185.75 240.386719 C 185.539062 240.480469 185.351562 240.609375 185.191406 240.773438 C 185.03125 240.9375 184.90625 241.128906 184.824219 241.34375 C 184.738281 241.558594 184.699219 241.78125 184.703125 242.011719 L 184.703125 273.292969 C 184.699219 273.523438 184.738281 273.746094 184.828125 273.964844 C 184.914062 274.179688 185.039062 274.371094 185.203125 274.535156 C 185.363281 274.703125 185.554688 274.828125 185.769531 274.917969 C 185.984375 275.007812 186.207031 275.054688 186.4375 275.054688 C 186.671875 275.054688 186.894531 275.007812 187.109375 274.917969 C 187.324219 274.828125 187.515625 274.703125 187.675781 274.535156 C 187.839844 274.371094 187.964844 274.179688 188.050781 273.964844 C 188.140625 273.746094 188.179688 273.523438 188.175781 273.292969 L 188.175781 242.011719 C 188.179688 241.773438 188.140625 241.546875 188.050781 241.332031 C 187.960938 241.113281 187.835938 240.921875 187.667969 240.753906 C 187.503906 240.589844 187.308594 240.460938 187.09375 240.371094 C 186.875 240.285156 186.648438 240.242188 186.414062 240.246094 Z M 186.414062 281.953125 C 186.183594 281.957031 185.960938 282.003906 185.75 282.09375 C 185.539062 282.1875 185.351562 282.316406 185.191406 282.480469 C 185.03125 282.648438 184.90625 282.835938 184.824219 283.050781 C 184.738281 283.265625 184.699219 283.488281 184.703125 283.71875 L 184.703125 294.144531 C 184.699219 294.378906 184.738281 294.601562 184.828125 294.816406 C 184.914062 295.03125 185.039062 295.222656 185.203125 295.390625 C 185.363281 295.554688 185.554688 295.683594 185.769531 295.773438 C 185.984375 295.863281 186.207031 295.90625 186.4375 295.90625 C 186.671875 295.90625 186.894531 295.863281 187.109375 295.773438 C 187.324219 295.683594 187.515625 295.554688 187.675781 295.390625 C 187.839844 295.222656 187.964844 295.03125 188.050781 294.816406 C 188.140625 294.601562 188.179688 294.378906 188.175781 294.144531 L 188.175781 283.71875 C 188.179688 283.484375 188.140625 283.257812 188.050781 283.039062 C 187.960938 282.820312 187.835938 282.628906 187.667969 282.460938 C 187.503906 282.296875 187.308594 282.167969 187.09375 282.078125 C 186.875 281.992188 186.648438 281.949219 186.414062 281.953125 Z M 186.414062 299.332031 C 186.183594 299.335938 185.960938 299.382812 185.75 299.472656 C 185.539062 299.566406 185.351562 299.695312 185.191406 299.859375 C 185.03125 300.023438 184.90625 300.214844 184.824219 300.429688 C 184.738281 300.644531 184.699219 300.867188 184.703125 301.097656 L 184.703125 304.570312 C 184.699219 304.804688 184.738281 305.027344 184.828125 305.242188 C 184.914062 305.460938 185.039062 305.652344 185.203125 305.816406 C 185.363281 305.980469 185.554688 306.109375 185.769531 306.199219 C 185.984375 306.289062 186.207031 306.332031 186.4375 306.332031 C 186.671875 306.332031 186.894531 306.289062 187.109375 306.199219 C 187.324219 306.109375 187.515625 305.980469 187.675781 305.816406 C 187.839844 305.652344 187.964844 305.460938 188.050781 305.242188 C 188.140625 305.027344 188.179688 304.804688 188.175781 304.570312 L 188.175781 301.097656 C 188.179688 300.859375 188.140625 300.632812 188.050781 300.417969 C 187.960938 300.199219 187.835938 300.007812 187.667969 299.839844 C 187.503906 299.671875 187.308594 299.546875 187.09375 299.457031 C 186.875 299.371094 186.648438 299.328125 186.414062 299.332031 Z M 186.414062 299.332031 " fill-opacity="1" fill-rule="nonzero"/></g></svg>