<svg xmlns="http://www.w3.org/2000/svg" xmlns:xlink="http://www.w3.org/1999/xlink" width="400" zoomAndPan="magnify" viewBox="0 0 300 299.999988" height="400" preserveAspectRatio="xMidYMid meet" version="1.0"><defs><clipPath id="00b07ff266"><path d="M 32 50.3125 L 279 50.3125 L 279 158 L 32 158 Z M 32 50.3125 " clip-rule="nonzero"/></clipPath><clipPath id="e4f8051be2"><path d="M 32 50.3125 L 279 50.3125 L 279 158 L 32 158 Z M 32 50.3125 " clip-rule="nonzero"/></clipPath><clipPath id="6bdd34f256"><path d="M 143.855469 193.238281 L 243 193.238281 L 243 265 L 143.855469 265 Z M 143.855469 193.238281 " clip-rule="nonzero"/></clipPath><clipPath id="15d38fbad3"><path d="M 143.855469 247 L 243 247 L 243 265 L 143.855469 265 Z M 143.855469 247 " clip-rule="nonzero"/></clipPath><clipPath id="e5f4b22210"><path d="M 201 275 L 299.855469 275 L 299.855469 296 L 201 296 Z M 201 275 " clip-rule="nonzero"/></clipPath><clipPath id="ceceb2b1cf"><path d="M 201 295 L 299.855469 295 L 299.855469 299.738281 L 201 299.738281 Z M 201 295 " clip-rule="nonzero"/></clipPath></defs><rect x="-30" width="360" fill="#ffffff" y="-29.999999" height="359.999986" fill-opacity="1"/><rect x="-30" width="360" fill="#ffffff" y="-29.999999" height="359.999986" fill-opacity="1"/><rect x="-30" width="360" fill="#17181c" y="-29.999999" height="359.999986" fill-opacity="1"/><path fill="#e15c63" d="M 143.589844 226.0625 L 135.632812 226.0625 L 135.632812 231.957031 L 127.675781 231.957031 L 127.675781 223.871094 L 119.71875 223.871094 L 119.71875 251.738281 L 111.761719 251.738281 L 111.761719 257.851562 L 103.804688 257.851562 L 103.804688 252.613281 L 95.847656 252.613281 L 95.847656 223.871094 L 87.890625 223.871094 L 87.890625 218.015625 L 79.933594 218.015625 L 79.933594 214.25 L 71.972656 214.25 L 71.972656 207.757812 L 64.015625 207.757812 L 64.015625 224.371094 L 56.058594 224.371094 L 56.058594 239.964844 L 48.101562 239.964844 L 48.101562 254.449219 L 40.144531 254.449219 L 40.144531 257.851562 L 32.1875 257.851562 L 32.1875 269.804688 L 151.546875 269.804688 L 151.546875 233.96875 L 143.589844 233.96875 Z M 143.589844 226.0625 " fill-opacity="1" fill-rule="nonzero"/><path fill="#e15c63" d="M 270.90625 250.683594 L 262.949219 250.683594 L 262.949219 254.269531 L 254.992188 254.269531 L 254.992188 240.226562 L 247.035156 240.226562 L 247.035156 235.625 L 239.078125 235.625 L 239.078125 226.382812 L 231.121094 226.382812 L 231.121094 220.882812 L 223.160156 220.882812 L 223.160156 213.136719 L 215.203125 213.136719 L 215.203125 220.882812 L 207.246094 220.882812 L 207.246094 248.171875 L 199.289062 248.171875 L 199.289062 234.390625 L 191.332031 234.390625 L 191.332031 245.203125 L 183.375 245.203125 L 183.375 269.804688 L 278.863281 269.804688 L 278.863281 231.519531 L 270.90625 231.519531 Z M 270.90625 250.683594 " fill-opacity="1" fill-rule="nonzero"/><g clip-path="url(#00b07ff266)"><path fill="#e15c63" d="M 211.464844 115.628906 L 223.796875 103.757812 L 233.128906 103.757812 L 264.757812 71.949219 L 269.335938 82.824219 L 278.863281 50.695312 L 247.015625 61.011719 C 247.015625 61.011719 252.804688 63.285156 257.476562 65.136719 L 229.90625 92.863281 L 220.574219 92.863281 L 208.222656 104.734375 L 199.25 104.734375 L 172.234375 130.46875 L 142.734375 106.167969 L 132.390625 114.15625 L 120.59375 106.167969 L 99.6875 123.5 L 75.175781 110.96875 L 32.1875 144.574219 L 32.1875 158 L 76.3125 123.5 L 101.136719 135.867188 L 121.089844 119.335938 L 132.886719 127.164062 L 142.515625 119.734375 L 172.253906 144.414062 L 202.472656 115.628906 Z M 211.464844 115.628906 " fill-opacity="1" fill-rule="nonzero"/></g><path fill="#8bcb8f" d="M 135.632812 226.0625 L 143.589844 226.0625 L 143.589844 269.804688 L 135.632812 269.804688 Z M 135.632812 226.0625 " fill-opacity="1" fill-rule="nonzero"/><path fill="#8bcb8f" d="M 119.71875 223.871094 L 127.675781 223.871094 L 127.675781 269.804688 L 119.71875 269.804688 Z M 119.71875 223.871094 " fill-opacity="1" fill-rule="nonzero"/><path fill="#8bcb8f" d="M 103.804688 257.851562 L 111.761719 257.851562 L 111.761719 269.804688 L 103.804688 269.804688 Z M 103.804688 257.851562 " fill-opacity="1" fill-rule="nonzero"/><path fill="#8bcb8f" d="M 87.890625 223.871094 L 95.847656 223.871094 L 95.847656 269.804688 L 87.890625 269.804688 Z M 87.890625 223.871094 " fill-opacity="1" fill-rule="nonzero"/><path fill="#8bcb8f" d="M 71.972656 214.25 L 79.933594 214.25 L 79.933594 269.804688 L 71.972656 269.804688 Z M 71.972656 214.25 " fill-opacity="1" fill-rule="nonzero"/><path fill="#8bcb8f" d="M 56.058594 224.371094 L 64.015625 224.371094 L 64.015625 269.804688 L 56.058594 269.804688 Z M 56.058594 224.371094 " fill-opacity="1" fill-rule="nonzero"/><path fill="#8bcb8f" d="M 40.144531 254.449219 L 48.101562 254.449219 L 48.101562 269.804688 L 40.144531 269.804688 Z M 40.144531 254.449219 " fill-opacity="1" fill-rule="nonzero"/><path fill="#8bcb8f" d="M 183.375 245.203125 L 191.332031 245.203125 L 191.332031 269.804688 L 183.375 269.804688 Z M 183.375 245.203125 " fill-opacity="1" fill-rule="nonzero"/><path fill="#8bcb8f" d="M 199.289062 248.171875 L 207.246094 248.171875 L 207.246094 269.804688 L 199.289062 269.804688 Z M 199.289062 248.171875 " fill-opacity="1" fill-rule="nonzero"/><path fill="#8bcb8f" d="M 215.203125 213.136719 L 223.160156 213.136719 L 223.160156 269.804688 L 215.203125 269.804688 Z M 215.203125 213.136719 " fill-opacity="1" fill-rule="nonzero"/><path fill="#8bcb8f" d="M 231.121094 226.382812 L 239.078125 226.382812 L 239.078125 269.804688 L 231.121094 269.804688 Z M 231.121094 226.382812 " fill-opacity="1" fill-rule="nonzero"/><path fill="#8bcb8f" d="M 247.035156 240.226562 L 254.992188 240.226562 L 254.992188 269.804688 L 247.035156 269.804688 Z M 247.035156 240.226562 " fill-opacity="1" fill-rule="nonzero"/><path fill="#8bcb8f" d="M 262.949219 250.683594 L 270.90625 250.683594 L 270.90625 269.804688 L 262.949219 269.804688 Z M 262.949219 250.683594 " fill-opacity="1" fill-rule="nonzero"/><g clip-path="url(#e4f8051be2)"><path fill="#ffc05a" d="M 278.863281 50.695312 L 269.335938 82.824219 L 264.757812 71.949219 L 233.128906 103.757812 L 223.796875 103.757812 L 211.464844 115.628906 L 202.472656 115.628906 L 172.253906 144.414062 L 142.515625 119.734375 L 132.886719 127.164062 L 121.089844 119.335938 L 101.136719 135.867188 L 76.3125 123.5 L 32.1875 158 L 32.1875 144.574219 L 75.175781 110.96875 L 99.6875 123.5 L 120.59375 106.167969 L 132.390625 114.15625 L 142.734375 106.167969 L 172.234375 130.46875 L 199.25 104.734375 L 208.222656 104.734375 L 220.574219 92.863281 L 229.90625 92.863281 L 257.476562 65.136719 C 252.804688 63.285156 247.015625 61.011719 247.015625 61.011719 Z M 278.863281 50.695312 " fill-opacity="1" fill-rule="nonzero"/></g><path fill="#52a7d7" d="M 167.460938 299.683594 C 167.457031 299.683594 167.453125 299.683594 167.449219 299.683594 C 166.457031 299.675781 165.625 298.941406 165.488281 297.957031 L 152.726562 203.273438 L 150.09375 209.0625 C 149.734375 209.851562 148.90625 210.3125 148.046875 210.210938 C 147.183594 210.109375 146.488281 209.457031 146.332031 208.605469 L 138.578125 167.488281 L 135.390625 172.390625 C 134.976562 173.027344 134.234375 173.371094 133.484375 173.28125 C 132.730469 173.1875 132.09375 172.675781 131.84375 171.957031 L 130.171875 167.125 L 127.527344 172.433594 C 127.164062 173.164062 126.386719 173.597656 125.582031 173.527344 C 124.769531 173.460938 124.082031 172.90625 123.84375 172.125 L 120.046875 159.714844 L 112.054688 196.585938 C 111.882812 197.371094 111.25 197.984375 110.457031 198.125 C 109.65625 198.269531 108.863281 197.914062 108.429688 197.226562 L 104.949219 191.730469 C 103.550781 193.925781 101.25 196.359375 97.914062 196.359375 C 91.851562 196.359375 89.6875 186.886719 86.953125 174.894531 C 84.015625 162 80.351562 145.945312 71.457031 145.945312 C 57.863281 145.945312 54.21875 167.273438 50.363281 189.859375 C 47.09375 209.027344 43.710938 228.847656 33.449219 237.261719 C 32.597656 237.960938 31.347656 237.835938 30.648438 236.984375 C 29.953125 236.132812 30.074219 234.875 30.925781 234.179688 C 40.039062 226.707031 43.296875 207.632812 46.445312 189.1875 C 50.589844 164.902344 54.507812 141.964844 71.457031 141.964844 C 83.527344 141.964844 87.410156 158.988281 90.835938 174.011719 C 92.699219 182.191406 95.023438 192.378906 97.914062 192.378906 C 100.484375 192.378906 102.390625 188.425781 102.851562 187.042969 C 103.097656 186.3125 103.738281 185.792969 104.5 185.699219 C 105.261719 185.601562 106.007812 185.964844 106.417969 186.613281 L 109.195312 190.996094 L 117.773438 151.421875 C 117.964844 150.535156 118.730469 149.890625 119.636719 149.855469 C 120.5 149.824219 121.355469 150.394531 121.621094 151.261719 L 126.191406 166.195312 L 128.722656 161.113281 C 129.078125 160.398438 129.835938 159.96875 130.628906 160.015625 C 131.425781 160.066406 132.121094 160.59375 132.378906 161.347656 L 134.273438 166.808594 L 137.945312 161.152344 C 138.386719 160.472656 139.191406 160.128906 139.996094 160.285156 C 140.792969 160.441406 141.414062 161.070312 141.566406 161.867188 L 149.078125 201.6875 L 151.964844 195.335938 C 152.335938 194.527344 153.199219 194.070312 154.066406 194.191406 C 154.945312 194.320312 155.632812 195.015625 155.75 195.894531 L 167.5625 283.53125 L 180.871094 194.175781 C 181.460938 191.269531 183.515625 189.019531 186.253906 188.203125 C 189.019531 187.375 191.886719 188.105469 193.917969 190.15625 C 195.730469 191.980469 197.402344 192.753906 198.898438 192.453125 C 200.945312 192.046875 203.023438 183.027344 204.398438 177.058594 C 207.285156 164.527344 210.558594 150.324219 220.101562 150.324219 C 228.71875 150.324219 231.167969 162.296875 233.535156 173.871094 C 235.414062 183.050781 237.539062 193.449219 242.421875 193.449219 C 248.195312 193.449219 249.425781 178.839844 250.320312 168.171875 C 251.335938 156.128906 252.105469 149.234375 256.105469 147.636719 C 258.550781 146.640625 260.976562 147.082031 262.910156 148.882812 C 263.355469 149.308594 263.921875 149.492188 264.464844 149.40625 C 264.808594 149.355469 265.28125 149.175781 265.585938 148.625 C 267.921875 144.347656 268.714844 139.652344 269.480469 135.113281 C 270.625 128.324219 271.707031 121.910156 278 118.871094 C 278.988281 118.390625 280.179688 118.804688 280.65625 119.796875 C 281.132812 120.789062 280.71875 121.980469 279.726562 122.457031 C 275.289062 124.605469 274.457031 129.535156 273.402344 135.777344 C 272.621094 140.414062 271.734375 145.667969 269.070312 150.542969 C 268.234375 152.066406 266.777344 153.085938 265.070312 153.347656 C 263.285156 153.617188 261.507812 153.054688 260.183594 151.785156 C 259.394531 151.054688 258.617188 150.914062 257.59375 151.332031 C 255.667969 152.101562 254.800781 162.375 254.285156 168.511719 C 253.144531 182.070312 251.851562 197.433594 242.417969 197.433594 C 234.289062 197.433594 231.925781 185.863281 229.636719 174.671875 C 227.683594 165.128906 225.472656 154.308594 220.097656 154.308594 C 213.71875 154.308594 210.699219 167.421875 208.273438 177.957031 C 206.019531 187.730469 204.242188 195.449219 199.679688 196.359375 C 197.691406 196.761719 194.589844 196.496094 191.09375 192.960938 C 190.113281 191.972656 188.730469 191.625 187.390625 192.019531 C 186.042969 192.421875 185.070312 193.488281 184.789062 194.863281 L 169.429688 297.980469 C 169.285156 298.960938 168.445312 299.683594 167.460938 299.683594 Z M 167.460938 299.683594 " fill-opacity="1" fill-rule="nonzero"/><path fill="#93b2b8" d="M 278.863281 271.796875 L 32.1875 271.796875 C 31.089844 271.796875 30.199219 270.90625 30.199219 269.804688 C 30.199219 268.707031 31.089844 267.8125 32.1875 267.8125 L 278.863281 267.8125 C 279.960938 267.8125 280.851562 268.707031 280.851562 269.804688 C 280.851562 270.90625 279.960938 271.796875 278.863281 271.796875 Z M 278.863281 271.796875 " fill-opacity="1" fill-rule="nonzero"/><path fill="#a7a5a6" d="M 200.421875 262.011719 L 186.09375 262.011719 L 181.523438 277.460938 L 204.988281 277.460938 L 200.421875 262.011719 " fill-opacity="1" fill-rule="nonzero"/><path fill="#727071" d="M 202.15625 267.875 L 184.359375 267.875 L 186.09375 262.011719 L 200.421875 262.011719 L 202.15625 267.875 " fill-opacity="1" fill-rule="nonzero"/><g clip-path="url(#6bdd34f256)"><path fill="#a7a5a6" d="M 242.570312 264.402344 L 143.945312 264.402344 L 143.945312 193.238281 L 242.570312 193.238281 L 242.570312 264.402344 " fill-opacity="1" fill-rule="nonzero"/></g><g clip-path="url(#15d38fbad3)"><path fill="#393536" d="M 143.945312 247.074219 L 143.945312 264.402344 L 242.570312 264.402344 L 242.570312 247.074219 L 143.945312 247.074219 " fill-opacity="1" fill-rule="nonzero"/></g><path fill="#ffffff" d="M 237.296875 257.96875 L 149.222656 257.96875 L 149.222656 196.894531 L 237.296875 196.894531 L 237.296875 257.96875 " fill-opacity="1" fill-rule="nonzero"/><path fill="#afd7f3" d="M 227.226562 246.453125 L 220.300781 246.453125 L 220.300781 208.410156 L 227.226562 208.410156 Z M 159.289062 208.410156 L 166.070312 208.410156 L 166.070312 246.453125 L 159.289062 246.453125 Z M 213.625 208.410156 L 219.5 208.410156 L 219.5 246.453125 L 213.625 246.453125 Z M 206.945312 208.410156 L 212.824219 208.410156 L 212.824219 246.453125 L 206.945312 246.453125 Z M 200.265625 208.410156 L 206.144531 208.410156 L 206.144531 246.453125 L 200.265625 246.453125 Z M 193.585938 208.410156 L 199.464844 208.410156 L 199.464844 246.453125 L 193.585938 246.453125 Z M 186.90625 208.410156 L 192.785156 208.410156 L 192.785156 246.453125 L 186.90625 246.453125 Z M 180.230469 208.410156 L 186.105469 208.410156 L 186.105469 246.453125 L 180.230469 246.453125 Z M 172.75 246.453125 L 166.871094 246.453125 L 166.871094 208.410156 L 172.75 208.410156 Z M 173.550781 208.410156 L 179.425781 208.410156 L 179.425781 246.453125 L 173.550781 246.453125 Z M 158.488281 207.613281 L 158.488281 247.25 L 228.027344 247.25 L 228.027344 207.613281 L 158.488281 207.613281 " fill-opacity="1" fill-rule="nonzero"/><path fill="#61b8da" d="M 168.578125 246.453125 L 164.355469 246.453125 L 164.355469 228.867188 L 168.578125 228.867188 L 168.578125 246.453125 " fill-opacity="1" fill-rule="nonzero"/><path fill="#61b8da" d="M 175.257812 246.453125 L 171.03125 246.453125 L 171.03125 224.722656 L 175.257812 224.722656 L 175.257812 246.453125 " fill-opacity="1" fill-rule="nonzero"/><path fill="#61b8da" d="M 181.9375 246.453125 L 177.710938 246.453125 L 177.710938 220.578125 L 181.9375 220.578125 L 181.9375 246.453125 " fill-opacity="1" fill-rule="nonzero"/><path fill="#61b8da" d="M 188.617188 246.453125 L 184.390625 246.453125 L 184.390625 216.433594 L 188.617188 216.433594 L 188.617188 246.453125 " fill-opacity="1" fill-rule="nonzero"/><path fill="#61b8da" d="M 195.296875 246.453125 L 191.070312 246.453125 L 191.070312 220.578125 L 195.296875 220.578125 L 195.296875 246.453125 " fill-opacity="1" fill-rule="nonzero"/><path fill="#61b8da" d="M 201.976562 246.453125 L 197.75 246.453125 L 197.75 228.867188 L 201.976562 228.867188 L 201.976562 246.453125 " fill-opacity="1" fill-rule="nonzero"/><path fill="#61b8da" d="M 208.65625 246.453125 L 204.429688 246.453125 L 204.429688 234.519531 L 208.65625 234.519531 L 208.65625 246.453125 " fill-opacity="1" fill-rule="nonzero"/><path fill="#61b8da" d="M 215.335938 246.453125 L 211.109375 246.453125 L 211.109375 228.867188 L 215.335938 228.867188 L 215.335938 246.453125 " fill-opacity="1" fill-rule="nonzero"/><path fill="#61b8da" d="M 222.015625 246.453125 L 217.789062 246.453125 L 217.789062 217.375 L 222.015625 217.375 L 222.015625 246.453125 " fill-opacity="1" fill-rule="nonzero"/><path fill="#222122" d="M 159.289062 247.226562 C 158.859375 247.226562 158.511719 246.878906 158.511719 246.453125 C 158.511719 246.1875 158.511719 245.691406 165.808594 234.167969 C 165.953125 233.945312 166.199219 233.808594 166.464844 233.808594 L 172.734375 233.808594 L 179.183594 224.289062 C 179.195312 224.269531 179.207031 224.253906 179.21875 224.234375 L 185.898438 215.945312 C 186.058594 215.75 186.300781 215.644531 186.554688 215.660156 C 186.808594 215.675781 187.035156 215.8125 187.167969 216.027344 L 193.730469 226.742188 L 200.210938 229.972656 C 200.300781 230.019531 200.382812 230.082031 200.449219 230.15625 L 206.34375 236.867188 L 212.613281 233.949219 L 219.179688 217.09375 C 219.207031 217.019531 219.25 216.949219 219.300781 216.882812 L 226.625 207.921875 C 226.898438 207.589844 227.386719 207.539062 227.71875 207.8125 C 228.050781 208.082031 228.101562 208.570312 227.828125 208.902344 L 220.582031 217.769531 L 213.949219 234.800781 C 213.875 234.988281 213.734375 235.136719 213.550781 235.222656 L 206.472656 238.519531 C 206.160156 238.664062 205.789062 238.585938 205.558594 238.328125 L 199.378906 231.292969 L 192.835938 228.03125 C 192.707031 227.964844 192.597656 227.863281 192.523438 227.742188 L 186.417969 217.777344 L 180.449219 225.183594 L 173.789062 235.019531 C 173.644531 235.230469 173.402344 235.359375 173.144531 235.359375 L 166.894531 235.359375 C 164.320312 239.433594 160.394531 245.753906 160.050781 246.609375 C 159.976562 246.964844 159.664062 247.226562 159.289062 247.226562 " fill-opacity="1" fill-rule="nonzero"/><path fill="#db4754" d="M 222.015625 238.585938 L 204.429688 238.585938 L 204.429688 232.789062 L 222.015625 232.789062 L 222.015625 238.585938 " fill-opacity="1" fill-rule="nonzero"/><path fill="#222122" d="M 205.207031 237.8125 L 221.238281 237.8125 L 221.238281 233.566406 L 205.207031 233.566406 Z M 222.015625 239.363281 L 204.429688 239.363281 C 204 239.363281 203.652344 239.015625 203.652344 238.585938 L 203.652344 232.789062 C 203.652344 232.359375 204 232.015625 204.429688 232.015625 L 222.015625 232.015625 C 222.445312 232.015625 222.792969 232.359375 222.792969 232.789062 L 222.792969 238.585938 C 222.792969 239.015625 222.445312 239.363281 222.015625 239.363281 " fill-opacity="1" fill-rule="nonzero"/><path fill="#db4754" d="M 177.371094 219.332031 L 159.785156 219.332031 L 159.785156 213.535156 L 177.371094 213.535156 L 177.371094 219.332031 " fill-opacity="1" fill-rule="nonzero"/><path fill="#222122" d="M 160.566406 218.554688 L 176.597656 218.554688 L 176.597656 214.308594 L 160.566406 214.308594 Z M 177.371094 220.109375 L 159.785156 220.109375 C 159.359375 220.109375 159.011719 219.761719 159.011719 219.332031 L 159.011719 213.535156 C 159.011719 213.105469 159.359375 212.757812 159.785156 212.757812 L 177.371094 212.757812 C 177.800781 212.757812 178.148438 213.105469 178.148438 213.535156 L 178.148438 219.332031 C 178.148438 219.761719 177.800781 220.109375 177.371094 220.109375 " fill-opacity="1" fill-rule="nonzero"/><path fill="#747272" d="M 215.578125 279.191406 L 170.9375 279.191406 L 170.9375 275.726562 L 215.578125 275.726562 L 215.578125 279.191406 " fill-opacity="1" fill-rule="nonzero"/><path fill="#696767" d="M 287.082031 275.089844 L 214.035156 275.0625 L 214.050781 230.230469 L 287.097656 230.253906 L 287.082031 275.089844 " fill-opacity="1" fill-rule="nonzero"/><path fill="#ffffff" d="M 283.585938 269.757812 L 217.53125 269.734375 L 217.542969 233.71875 L 283.597656 233.742188 L 283.585938 269.757812 " fill-opacity="1" fill-rule="nonzero"/><g clip-path="url(#e5f4b22210)"><path fill="#a7a5a6" d="M 287.226562 275.089844 L 213.886719 275.0625 L 201.339844 295.136719 L 243.503906 295.152344 L 299.761719 295.167969 L 287.226562 275.089844 " fill-opacity="1" fill-rule="nonzero"/></g><g clip-path="url(#ceceb2b1cf)"><path fill="#696767" d="M 299.757812 299.738281 L 201.339844 299.707031 L 201.339844 295.136719 L 299.761719 295.167969 L 299.757812 299.738281 " fill-opacity="1" fill-rule="nonzero"/></g><path fill="#231f20" d="M 221.828125 278.828125 L 218.199219 278.824219 C 217.316406 278.824219 217.078125 278.824219 217.078125 278.375 C 217.078125 278.257812 217.125 278.140625 217.210938 278.058594 C 217.292969 277.972656 217.410156 277.925781 217.527344 277.925781 L 221.828125 277.925781 L 221.828125 278.828125 " fill-opacity="1" fill-rule="nonzero"/><path fill="#231f20" d="M 230.433594 278.832031 L 226.808594 278.828125 C 225.921875 278.828125 225.683594 278.828125 225.683594 278.378906 C 225.683594 278.257812 225.734375 278.144531 225.816406 278.058594 C 225.902344 277.976562 226.015625 277.929688 226.136719 277.929688 C 226.167969 277.929688 230.433594 277.929688 230.433594 277.929688 L 230.433594 278.832031 " fill-opacity="1" fill-rule="nonzero"/><path fill="#231f20" d="M 236.445312 278.832031 L 232.820312 278.832031 C 231.933594 278.832031 231.695312 278.832031 231.695312 278.378906 C 231.695312 278.261719 231.746094 278.148438 231.828125 278.0625 C 231.914062 277.976562 232.027344 277.929688 232.148438 277.929688 L 236.445312 277.933594 C 236.695312 277.933594 236.894531 278.132812 236.894531 278.382812 C 236.894531 278.628906 236.695312 278.832031 236.445312 278.832031 " fill-opacity="1" fill-rule="nonzero"/><path fill="#231f20" d="M 242.457031 278.832031 L 238.832031 278.832031 C 237.945312 278.832031 237.707031 278.832031 237.707031 278.382812 C 237.707031 278.261719 237.753906 278.148438 237.839844 278.0625 C 237.925781 277.980469 238.039062 277.933594 238.160156 277.933594 L 242.457031 277.933594 C 242.707031 277.933594 242.90625 278.136719 242.90625 278.382812 C 242.90625 278.632812 242.707031 278.832031 242.457031 278.832031 " fill-opacity="1" fill-rule="nonzero"/><path fill="#231f20" d="M 248.46875 278.835938 L 244.839844 278.835938 C 243.957031 278.835938 243.71875 278.835938 243.71875 278.382812 C 243.71875 278.265625 243.765625 278.152344 243.851562 278.066406 C 243.9375 277.980469 244.050781 277.933594 244.171875 277.933594 L 248.46875 277.9375 C 248.71875 277.9375 248.917969 278.136719 248.917969 278.386719 C 248.917969 278.632812 248.71875 278.835938 248.46875 278.835938 " fill-opacity="1" fill-rule="nonzero"/><path fill="#231f20" d="M 254.480469 278.839844 L 250.851562 278.835938 C 249.96875 278.835938 249.730469 278.835938 249.730469 278.386719 C 249.730469 278.265625 249.777344 278.152344 249.863281 278.066406 C 249.945312 277.984375 250.0625 277.9375 250.179688 277.9375 L 254.480469 277.9375 C 254.726562 277.9375 254.929688 278.140625 254.929688 278.386719 C 254.929688 278.636719 254.726562 278.839844 254.480469 278.839844 " fill-opacity="1" fill-rule="nonzero"/><path fill="#231f20" d="M 260.492188 278.839844 L 256.863281 278.839844 C 255.980469 278.839844 255.742188 278.839844 255.742188 278.386719 C 255.742188 278.269531 255.789062 278.152344 255.875 278.070312 C 255.957031 277.984375 256.074219 277.9375 256.191406 277.9375 L 256.195312 277.9375 L 260.492188 277.941406 L 260.492188 278.839844 " fill-opacity="1" fill-rule="nonzero"/><path fill="#231f20" d="M 270.363281 278.84375 L 266.738281 278.839844 C 265.851562 278.839844 265.617188 278.839844 265.617188 278.390625 C 265.617188 278.273438 265.664062 278.15625 265.75 278.074219 C 265.832031 277.988281 265.945312 277.941406 266.066406 277.941406 L 270.367188 277.945312 L 270.363281 278.84375 " fill-opacity="1" fill-rule="nonzero"/><path fill="#231f20" d="M 276.375 278.847656 L 272.75 278.84375 C 271.867188 278.84375 271.628906 278.84375 271.628906 278.394531 C 271.628906 278.273438 271.675781 278.160156 271.757812 278.078125 C 271.84375 277.992188 271.957031 277.945312 272.078125 277.945312 L 276.375 277.945312 L 276.375 278.847656 " fill-opacity="1" fill-rule="nonzero"/><path fill="#231f20" d="M 282.386719 278.847656 L 278.761719 278.847656 C 277.875 278.847656 277.636719 278.847656 277.636719 278.394531 C 277.636719 278.277344 277.6875 278.160156 277.769531 278.078125 C 277.855469 277.992188 277.96875 277.945312 278.089844 277.945312 L 282.386719 277.949219 L 282.386719 278.847656 " fill-opacity="1" fill-rule="nonzero"/><path fill="#231f20" d="M 218.332031 281.507812 L 214.703125 281.507812 C 213.820312 281.507812 213.582031 281.507812 213.582031 281.054688 C 213.582031 280.9375 213.628906 280.824219 213.714844 280.738281 C 213.800781 280.652344 213.914062 280.605469 214.03125 280.605469 C 214.066406 280.605469 218.332031 280.609375 218.332031 280.609375 L 218.332031 281.507812 " fill-opacity="1" fill-rule="nonzero"/><path fill="#231f20" d="M 232.28125 281.511719 L 228.652344 281.511719 C 227.769531 281.511719 227.53125 281.511719 227.53125 281.0625 C 227.53125 280.941406 227.578125 280.828125 227.664062 280.742188 C 227.75 280.660156 227.863281 280.613281 227.980469 280.613281 L 232.28125 280.613281 C 232.53125 280.613281 232.730469 280.8125 232.730469 281.0625 C 232.730469 281.3125 232.53125 281.511719 232.28125 281.511719 " fill-opacity="1" fill-rule="nonzero"/><path fill="#231f20" d="M 224.734375 281.507812 L 221.105469 281.507812 C 220.222656 281.507812 219.984375 281.507812 219.984375 281.058594 C 219.984375 280.9375 220.035156 280.824219 220.117188 280.742188 C 220.203125 280.65625 220.316406 280.609375 220.4375 280.609375 L 224.734375 280.609375 L 224.734375 281.507812 " fill-opacity="1" fill-rule="nonzero"/><path fill="#231f20" d="M 238.292969 281.511719 L 234.664062 281.511719 C 233.78125 281.511719 233.542969 281.511719 233.542969 281.0625 C 233.542969 280.945312 233.589844 280.832031 233.675781 280.746094 C 233.757812 280.660156 233.875 280.613281 233.992188 280.613281 L 238.292969 280.613281 L 238.292969 281.511719 " fill-opacity="1" fill-rule="nonzero"/><path fill="#231f20" d="M 244.304688 281.515625 L 240.675781 281.515625 C 239.792969 281.515625 239.554688 281.515625 239.554688 281.066406 C 239.554688 280.945312 239.601562 280.832031 239.6875 280.746094 C 239.769531 280.664062 239.886719 280.613281 240.003906 280.613281 L 244.304688 280.617188 C 244.550781 280.617188 244.753906 280.816406 244.753906 281.066406 C 244.753906 281.316406 244.550781 281.515625 244.304688 281.515625 " fill-opacity="1" fill-rule="nonzero"/><path fill="#231f20" d="M 250.316406 281.519531 L 246.6875 281.515625 C 245.804688 281.515625 245.566406 281.515625 245.566406 281.066406 C 245.566406 280.949219 245.613281 280.832031 245.699219 280.75 C 245.78125 280.664062 245.898438 280.617188 246.015625 280.617188 L 250.316406 280.617188 C 250.5625 280.617188 250.765625 280.820312 250.765625 281.070312 C 250.765625 281.316406 250.5625 281.519531 250.316406 281.519531 " fill-opacity="1" fill-rule="nonzero"/><path fill="#231f20" d="M 256.328125 281.519531 L 252.699219 281.519531 C 251.816406 281.519531 251.578125 281.519531 251.578125 281.070312 C 251.578125 280.949219 251.625 280.835938 251.710938 280.75 C 251.792969 280.667969 251.910156 280.621094 252.027344 280.621094 L 256.328125 280.621094 C 256.574219 280.621094 256.777344 280.820312 256.777344 281.070312 C 256.777344 281.320312 256.574219 281.519531 256.328125 281.519531 " fill-opacity="1" fill-rule="nonzero"/><path fill="#231f20" d="M 262.339844 281.523438 L 258.710938 281.519531 C 257.824219 281.519531 257.589844 281.519531 257.589844 281.070312 C 257.589844 280.953125 257.636719 280.835938 257.71875 280.753906 C 257.804688 280.667969 257.917969 280.621094 258.039062 280.621094 L 262.339844 280.621094 C 262.589844 280.621094 262.789062 280.824219 262.789062 281.074219 C 262.789062 281.320312 262.585938 281.523438 262.339844 281.523438 " fill-opacity="1" fill-rule="nonzero"/><path fill="#231f20" d="M 271.46875 281.523438 L 267.84375 281.523438 C 266.960938 281.523438 266.722656 281.523438 266.722656 281.074219 C 266.722656 280.957031 266.769531 280.839844 266.855469 280.757812 C 266.9375 280.671875 267.050781 280.625 267.171875 280.625 L 271.46875 280.625 L 271.46875 281.523438 " fill-opacity="1" fill-rule="nonzero"/><path fill="#231f20" d="M 277.480469 281.527344 L 273.851562 281.527344 C 272.96875 281.527344 272.730469 281.527344 272.730469 281.078125 C 272.730469 280.957031 272.78125 280.84375 272.863281 280.757812 C 272.949219 280.675781 273.0625 280.625 273.183594 280.625 L 277.480469 280.628906 C 277.730469 280.628906 277.933594 280.828125 277.933594 281.078125 C 277.933594 281.324219 277.730469 281.527344 277.480469 281.527344 " fill-opacity="1" fill-rule="nonzero"/><path fill="#231f20" d="M 283.492188 281.527344 L 279.867188 281.527344 C 278.980469 281.527344 278.742188 281.527344 278.742188 281.078125 C 278.742188 280.960938 278.792969 280.84375 278.875 280.761719 C 278.960938 280.675781 279.074219 280.628906 279.195312 280.628906 L 283.492188 280.628906 L 283.492188 281.527344 " fill-opacity="1" fill-rule="nonzero"/><path fill="#231f20" d="M 215.515625 283.933594 L 211.890625 283.933594 C 211.003906 283.933594 210.769531 283.933594 210.769531 283.480469 C 210.769531 283.363281 210.816406 283.25 210.898438 283.164062 C 210.984375 283.078125 211.097656 283.03125 211.21875 283.03125 L 215.515625 283.035156 C 215.765625 283.035156 215.96875 283.234375 215.96875 283.484375 C 215.96875 283.730469 215.765625 283.933594 215.515625 283.933594 " fill-opacity="1" fill-rule="nonzero"/><path fill="#231f20" d="M 229.464844 283.9375 L 225.839844 283.9375 C 224.953125 283.9375 224.714844 283.9375 224.71875 283.488281 C 224.71875 283.367188 224.765625 283.253906 224.847656 283.167969 C 224.933594 283.085938 225.046875 283.035156 225.167969 283.035156 L 229.464844 283.039062 C 229.714844 283.039062 229.917969 283.238281 229.917969 283.488281 C 229.917969 283.738281 229.714844 283.9375 229.464844 283.9375 " fill-opacity="1" fill-rule="nonzero"/><path fill="#231f20" d="M 221.917969 283.9375 L 218.292969 283.933594 C 217.40625 283.933594 217.167969 283.933594 217.171875 283.484375 C 217.171875 283.363281 217.21875 283.25 217.300781 283.164062 C 217.386719 283.082031 217.5 283.035156 217.621094 283.035156 L 221.917969 283.035156 L 221.917969 283.9375 " fill-opacity="1" fill-rule="nonzero"/><path fill="#231f20" d="M 235.476562 283.941406 L 231.851562 283.9375 C 230.964844 283.9375 230.726562 283.9375 230.726562 283.488281 C 230.726562 283.371094 230.777344 283.253906 230.859375 283.171875 C 230.945312 283.085938 231.058594 283.039062 231.179688 283.039062 L 235.476562 283.039062 L 235.476562 283.941406 " fill-opacity="1" fill-rule="nonzero"/><path fill="#231f20" d="M 241.488281 283.941406 L 237.863281 283.941406 C 236.976562 283.941406 236.738281 283.941406 236.738281 283.492188 C 236.738281 283.371094 236.789062 283.257812 236.871094 283.171875 C 236.957031 283.085938 237.070312 283.039062 237.191406 283.039062 L 241.488281 283.042969 C 241.738281 283.042969 241.941406 283.242188 241.941406 283.492188 C 241.941406 283.742188 241.738281 283.941406 241.488281 283.941406 " fill-opacity="1" fill-rule="nonzero"/><path fill="#231f20" d="M 247.5 283.945312 L 243.875 283.941406 C 242.988281 283.941406 242.75 283.941406 242.75 283.492188 C 242.75 283.375 242.796875 283.257812 242.882812 283.175781 C 242.96875 283.089844 243.082031 283.042969 243.203125 283.042969 L 247.5 283.042969 C 247.75 283.042969 247.953125 283.246094 247.953125 283.496094 C 247.953125 283.742188 247.75 283.945312 247.5 283.945312 " fill-opacity="1" fill-rule="nonzero"/><path fill="#231f20" d="M 253.511719 283.945312 L 249.882812 283.945312 C 249 283.945312 248.761719 283.945312 248.761719 283.496094 C 248.761719 283.375 248.808594 283.261719 248.894531 283.175781 C 248.980469 283.09375 249.09375 283.042969 249.210938 283.042969 L 253.511719 283.046875 L 253.511719 283.945312 " fill-opacity="1" fill-rule="nonzero"/><path fill="#231f20" d="M 259.523438 283.949219 L 255.894531 283.945312 C 255.011719 283.945312 254.773438 283.945312 254.773438 283.496094 C 254.773438 283.378906 254.820312 283.261719 254.90625 283.179688 C 254.992188 283.09375 255.105469 283.046875 255.226562 283.046875 L 259.523438 283.046875 L 259.523438 283.949219 " fill-opacity="1" fill-rule="nonzero"/><path fill="#231f20" d="M 273.617188 283.953125 L 269.992188 283.949219 C 269.105469 283.949219 268.871094 283.949219 268.871094 283.5 C 268.871094 283.382812 268.917969 283.265625 269 283.183594 C 269.085938 283.097656 269.199219 283.050781 269.320312 283.050781 L 273.617188 283.054688 L 273.617188 283.953125 " fill-opacity="1" fill-rule="nonzero"/><path fill="#231f20" d="M 279.628906 283.953125 L 276 283.953125 C 275.117188 283.953125 274.878906 283.953125 274.878906 283.503906 C 274.878906 283.382812 274.925781 283.269531 275.011719 283.1875 C 275.097656 283.101562 275.210938 283.054688 275.332031 283.054688 L 279.628906 283.054688 C 279.878906 283.054688 280.082031 283.257812 280.082031 283.503906 C 280.082031 283.753906 279.878906 283.953125 279.628906 283.953125 " fill-opacity="1" fill-rule="nonzero"/><path fill="#231f20" d="M 285.640625 283.957031 L 282.011719 283.957031 C 281.128906 283.957031 280.890625 283.953125 280.890625 283.503906 C 280.890625 283.386719 280.9375 283.269531 281.023438 283.1875 C 281.109375 283.101562 281.222656 283.054688 281.34375 283.054688 L 285.640625 283.058594 L 285.640625 283.957031 " fill-opacity="1" fill-rule="nonzero"/><path fill="#231f20" d="M 218.328125 286.617188 L 214.703125 286.613281 C 213.816406 286.613281 213.578125 286.613281 213.582031 286.164062 C 213.582031 286.042969 213.628906 285.929688 213.710938 285.847656 C 213.796875 285.761719 213.910156 285.714844 214.03125 285.714844 L 218.332031 285.714844 L 218.328125 286.617188 " fill-opacity="1" fill-rule="nonzero"/><path fill="#231f20" d="M 232.277344 286.621094 L 228.652344 286.621094 C 227.765625 286.621094 227.53125 286.621094 227.53125 286.167969 C 227.53125 286.050781 227.578125 285.933594 227.660156 285.851562 C 227.746094 285.769531 227.859375 285.71875 227.980469 285.71875 L 232.277344 285.722656 L 232.277344 286.621094 " fill-opacity="1" fill-rule="nonzero"/><path fill="#231f20" d="M 224.734375 286.617188 L 221.105469 286.617188 C 220.222656 286.617188 219.984375 286.617188 219.984375 286.167969 C 219.984375 286.046875 220.03125 285.933594 220.117188 285.847656 C 220.199219 285.765625 220.316406 285.714844 220.433594 285.714844 L 224.734375 285.71875 L 224.734375 286.617188 " fill-opacity="1" fill-rule="nonzero"/><path fill="#231f20" d="M 238.289062 286.621094 L 234.664062 286.621094 C 233.777344 286.621094 233.542969 286.621094 233.542969 286.171875 C 233.539062 286.054688 233.585938 285.9375 233.671875 285.855469 C 233.757812 285.769531 233.871094 285.722656 233.992188 285.722656 L 238.289062 285.722656 L 238.289062 286.621094 " fill-opacity="1" fill-rule="nonzero"/><path fill="#231f20" d="M 244.300781 286.625 L 240.671875 286.625 C 239.789062 286.625 239.550781 286.625 239.550781 286.171875 C 239.550781 286.054688 239.601562 285.941406 239.683594 285.855469 C 239.769531 285.769531 239.882812 285.722656 240.003906 285.722656 L 244.300781 285.726562 C 244.550781 285.726562 244.753906 285.925781 244.753906 286.175781 C 244.753906 286.421875 244.550781 286.625 244.300781 286.625 " fill-opacity="1" fill-rule="nonzero"/><path fill="#231f20" d="M 250.3125 286.625 L 246.6875 286.625 C 245.800781 286.625 245.5625 286.625 245.5625 286.175781 C 245.5625 286.058594 245.613281 285.941406 245.695312 285.859375 C 245.78125 285.773438 245.894531 285.726562 246.015625 285.726562 L 250.3125 285.726562 L 250.3125 286.625 " fill-opacity="1" fill-rule="nonzero"/><path fill="#231f20" d="M 256.324219 286.628906 L 252.695312 286.628906 C 251.8125 286.628906 251.574219 286.628906 251.574219 286.179688 C 251.574219 286.058594 251.625 285.945312 251.707031 285.859375 C 251.792969 285.777344 251.90625 285.726562 252.023438 285.726562 L 252.027344 285.726562 L 256.324219 285.730469 L 256.324219 286.628906 " fill-opacity="1" fill-rule="nonzero"/><path fill="#231f20" d="M 262.335938 286.628906 L 258.710938 286.628906 C 257.824219 286.628906 257.585938 286.628906 257.585938 286.179688 C 257.585938 286.058594 257.632812 285.945312 257.71875 285.859375 C 257.804688 285.777344 257.917969 285.730469 258.039062 285.730469 L 262.335938 285.730469 C 262.585938 285.730469 262.789062 285.933594 262.789062 286.179688 C 262.789062 286.429688 262.585938 286.628906 262.335938 286.628906 " fill-opacity="1" fill-rule="nonzero"/><path fill="#231f20" d="M 275.332031 286.636719 L 271.703125 286.632812 C 270.820312 286.632812 270.582031 286.632812 270.582031 286.183594 C 270.582031 286.0625 270.628906 285.949219 270.714844 285.867188 C 270.796875 285.78125 270.914062 285.734375 271.03125 285.734375 C 271.066406 285.734375 275.332031 285.734375 275.332031 285.734375 L 275.332031 286.636719 " fill-opacity="1" fill-rule="nonzero"/><path fill="#231f20" d="M 281.339844 286.636719 L 277.714844 286.636719 C 276.832031 286.636719 276.59375 286.636719 276.59375 286.1875 C 276.59375 286.066406 276.640625 285.953125 276.722656 285.867188 C 276.808594 285.785156 276.925781 285.738281 277.042969 285.738281 L 281.339844 285.738281 L 281.339844 286.636719 " fill-opacity="1" fill-rule="nonzero"/><path fill="#231f20" d="M 287.351562 286.640625 L 283.726562 286.636719 C 282.839844 286.636719 282.605469 286.636719 282.605469 286.1875 C 282.605469 286.066406 282.652344 285.953125 282.738281 285.871094 C 282.820312 285.785156 282.9375 285.738281 283.054688 285.738281 L 287.355469 285.738281 L 287.351562 286.640625 " fill-opacity="1" fill-rule="nonzero"/><path fill="#231f20" d="M 215.515625 289.042969 L 211.886719 289.039062 C 211.003906 289.039062 210.765625 289.039062 210.765625 288.589844 C 210.765625 288.46875 210.8125 288.355469 210.898438 288.273438 C 210.980469 288.1875 211.097656 288.140625 211.214844 288.140625 L 215.515625 288.140625 L 215.515625 289.042969 " fill-opacity="1" fill-rule="nonzero"/><path fill="#231f20" d="M 229.464844 289.046875 L 225.835938 289.046875 C 224.953125 289.046875 224.714844 289.046875 224.714844 288.59375 C 224.714844 288.476562 224.761719 288.363281 224.847656 288.277344 C 224.933594 288.191406 225.046875 288.144531 225.164062 288.144531 L 229.464844 288.144531 L 229.464844 289.046875 " fill-opacity="1" fill-rule="nonzero"/><path fill="#231f20" d="M 221.917969 289.042969 L 218.292969 289.042969 C 217.40625 289.042969 217.167969 289.042969 217.167969 288.59375 C 217.167969 288.472656 217.214844 288.359375 217.300781 288.273438 C 217.386719 288.191406 217.5 288.140625 217.621094 288.140625 L 221.917969 288.144531 L 221.917969 289.042969 " fill-opacity="1" fill-rule="nonzero"/><path fill="#231f20" d="M 235.476562 289.046875 L 231.847656 289.046875 C 230.964844 289.046875 230.726562 289.046875 230.726562 288.597656 C 230.726562 288.476562 230.773438 288.363281 230.859375 288.277344 C 230.941406 288.195312 231.058594 288.144531 231.175781 288.144531 L 235.476562 288.148438 L 235.476562 289.046875 " fill-opacity="1" fill-rule="nonzero"/><path fill="#231f20" d="M 241.488281 289.050781 L 237.859375 289.050781 C 236.976562 289.050781 236.738281 289.050781 236.738281 288.601562 C 236.738281 288.480469 236.785156 288.367188 236.871094 288.28125 C 236.953125 288.199219 237.070312 288.148438 237.1875 288.148438 L 241.488281 288.148438 L 241.488281 289.050781 " fill-opacity="1" fill-rule="nonzero"/><path fill="#231f20" d="M 247.5 289.050781 L 243.871094 289.050781 C 242.988281 289.050781 242.75 289.050781 242.75 288.601562 C 242.75 288.480469 242.796875 288.367188 242.878906 288.285156 C 242.964844 288.199219 243.082031 288.152344 243.199219 288.152344 L 247.5 288.152344 L 247.5 289.050781 " fill-opacity="1" fill-rule="nonzero"/><path fill="#231f20" d="M 253.507812 289.054688 L 249.882812 289.050781 C 249 289.050781 248.761719 289.050781 248.761719 288.601562 C 248.761719 288.484375 248.808594 288.371094 248.894531 288.285156 C 248.976562 288.199219 249.09375 288.152344 249.210938 288.152344 L 253.507812 288.152344 L 253.507812 289.054688 " fill-opacity="1" fill-rule="nonzero"/><path fill="#231f20" d="M 259.523438 289.054688 L 255.894531 289.054688 C 255.007812 289.054688 254.773438 289.054688 254.773438 288.605469 C 254.773438 288.484375 254.820312 288.371094 254.90625 288.285156 C 254.988281 288.203125 255.101562 288.15625 255.222656 288.15625 L 259.523438 288.15625 L 259.523438 289.054688 " fill-opacity="1" fill-rule="nonzero"/><path fill="#231f20" d="M 278.148438 289.0625 L 274.519531 289.0625 C 273.636719 289.0625 273.398438 289.058594 273.398438 288.609375 C 273.398438 288.492188 273.445312 288.378906 273.53125 288.292969 C 273.613281 288.207031 273.730469 288.160156 273.847656 288.160156 L 273.851562 288.160156 C 273.882812 288.160156 278.148438 288.164062 278.148438 288.164062 L 278.148438 289.0625 " fill-opacity="1" fill-rule="nonzero"/><path fill="#231f20" d="M 284.160156 289.066406 L 280.53125 289.0625 C 279.648438 289.0625 279.410156 289.0625 279.410156 288.613281 C 279.410156 288.492188 279.457031 288.378906 279.542969 288.292969 C 279.625 288.210938 279.742188 288.164062 279.859375 288.164062 L 284.160156 288.164062 L 284.160156 289.066406 " fill-opacity="1" fill-rule="nonzero"/><path fill="#231f20" d="M 290.171875 289.066406 L 286.546875 289.066406 C 285.660156 289.066406 285.421875 289.066406 285.421875 288.617188 C 285.421875 288.496094 285.46875 288.382812 285.554688 288.296875 C 285.640625 288.214844 285.753906 288.164062 285.875 288.164062 L 290.171875 288.167969 L 290.171875 289.066406 " fill-opacity="1" fill-rule="nonzero"/><path fill="#f9a72b" d="M 235.121094 263.261719 L 230.566406 263.261719 L 230.566406 240.359375 L 235.121094 240.359375 L 235.121094 263.261719 " fill-opacity="1" fill-rule="nonzero"/><path fill="#f9a72b" d="M 243.972656 263.261719 L 239.421875 263.261719 L 239.421875 233.054688 L 243.972656 233.054688 L 243.972656 263.261719 " fill-opacity="1" fill-rule="nonzero"/><path fill="#f9a72b" d="M 252.828125 263.261719 L 248.273438 263.261719 L 248.273438 245.265625 L 252.828125 245.265625 L 252.828125 263.261719 " fill-opacity="1" fill-rule="nonzero"/><path fill="#f9a72b" d="M 261.679688 263.261719 L 257.128906 263.261719 L 257.128906 237.960938 L 261.679688 237.960938 L 261.679688 263.261719 " fill-opacity="1" fill-rule="nonzero"/><path fill="#f9a72b" d="M 270.535156 263.261719 L 265.980469 263.261719 L 265.980469 225.265625 L 270.535156 225.265625 L 270.535156 263.261719 " fill-opacity="1" fill-rule="nonzero"/><path fill="#ef3532" d="M 273.285156 211.742188 L 258.960938 216.113281 L 265.226562 217.933594 L 249.195312 232.957031 L 240.074219 221.65625 C 239.863281 221.394531 239.554688 221.226562 239.21875 221.191406 C 238.882812 221.15625 238.546875 221.257812 238.289062 221.472656 L 228.28125 229.652344 C 227.742188 230.09375 227.660156 230.890625 228.105469 231.429688 C 228.546875 231.972656 229.34375 232.050781 229.886719 231.609375 L 238.90625 224.234375 L 248.078125 235.605469 C 248.300781 235.878906 248.628906 236.046875 248.980469 236.074219 C 249.007812 236.074219 249.035156 236.074219 249.066406 236.074219 C 249.386719 236.074219 249.699219 235.953125 249.933594 235.734375 L 267.054688 219.6875 L 268.90625 226.042969 L 273.285156 211.742188 " fill-opacity="1" fill-rule="nonzero"/><path fill="#222122" d="M 278.5 263.261719 L 222.601562 263.261719 L 222.601562 266.253906 L 278.5 266.253906 L 278.5 263.261719 " fill-opacity="1" fill-rule="nonzero"/><path fill="#dedce1" d="M 88.320312 6.878906 L 89.921875 26.871094 L 88.894531 59.402344 C 88.894531 59.402344 8.074219 111.378906 7.667969 111.519531 C 7.265625 111.664062 7.667969 80.253906 7.527344 62.820312 C 7.382812 45.382812 17.199219 47.820312 19.707031 45.597656 Z M 88.320312 6.878906 " fill-opacity="1" fill-rule="nonzero"/><path fill="#182d88" d="M 96.25 55.007812 L 93.789062 58.183594 L 90.902344 54.171875 L 90.757812 54.101562 L 90.757812 5.515625 C 90.757812 4.492188 90.113281 3.679688 89.277344 3.34375 C 88.65625 3.105469 86.125 2.269531 85.457031 2.652344 L 9.722656 45.550781 C 6.214844 47.578125 5.664062 53.074219 2.917969 55.890625 L 0.121094 111.472656 C 2.894531 113.765625 6.1875 117.5625 6.976562 118.089844 C 7.859375 118.6875 9.078125 118.828125 10.152344 118.207031 L 31.050781 106.148438 C 31.097656 106.195312 31.171875 106.242188 31.242188 106.289062 L 43.300781 113.191406 C 44.257812 113.742188 45.453125 113.742188 46.40625 113.191406 L 73.15625 97.761719 C 73.515625 97.570312 73.679688 97.164062 73.679688 96.855469 L 73.679688 94.226562 L 74.445312 92.9375 L 61.09375 94.085938 L 61.070312 88.804688 L 70.71875 83.242188 L 75.566406 84.050781 L 75.808594 80.328125 L 86.078125 74.402344 C 88.34375 73.089844 89.921875 70.941406 90.519531 68.457031 L 94.914062 65.421875 L 97.539062 55.75 Z M 44.878906 62.316406 L 44.757812 62.246094 L 44.757812 59.832031 L 45.929688 59.164062 Z M 54.335938 59.664062 L 48.507812 57.660156 L 54.335938 54.265625 Z M 54.335938 53.980469 L 48.199219 57.539062 L 47.960938 57.46875 L 46.71875 56.75 L 46.050781 58.804688 L 44.757812 59.546875 L 44.757812 48.558594 L 54.335938 42.992188 Z M 54.335938 42.707031 L 44.734375 48.273438 L 44.734375 37.070312 L 54.3125 31.527344 L 54.3125 42.707031 Z M 54.574219 59.402344 L 54.574219 54.125 L 56.222656 53.167969 Z M 64.152344 50.78125 L 62.21875 49.707031 L 64.152344 48.582031 Z M 64.152344 48.273438 L 61.953125 49.539062 L 59.042969 47.914062 L 57.800781 47.199219 L 56.320312 52.808594 L 54.574219 53.8125 L 54.574219 42.828125 L 64.152344 37.261719 Z M 64.152344 37 L 54.574219 42.5625 L 54.574219 31.410156 L 64.152344 25.867188 Z M 64.414062 50.660156 L 64.414062 48.414062 L 66.96875 46.933594 Z M 73.992188 48.871094 L 67.234375 46.765625 L 73.992188 42.851562 Z M 73.992188 42.5625 L 64.414062 48.128906 L 64.414062 37.140625 L 73.992188 31.578125 Z M 73.992188 31.289062 L 64.414062 36.855469 L 64.414062 25.722656 L 73.992188 20.183594 Z M 75.519531 49.347656 L 74.253906 48.941406 L 74.253906 42.707031 L 78.839844 40.03125 Z M 83.832031 51.28125 L 81.492188 58.28125 L 81.417969 58.234375 L 80.917969 50.113281 L 83.855469 48.414062 L 83.855469 51.28125 Z M 83.832031 48.128906 L 80.894531 49.847656 L 80.296875 40.199219 L 79.4375 39.722656 L 83.832031 37.164062 Z M 83.832031 36.855469 L 79.175781 39.554688 L 79.03125 39.484375 L 78.960938 39.671875 L 74.230469 42.421875 L 74.230469 31.433594 L 83.808594 25.867188 L 83.808594 36.855469 Z M 83.832031 25.558594 L 74.253906 31.121094 L 74.253906 20.039062 L 83.832031 14.5 Z M 87.773438 55.4375 L 86.671875 47.199219 L 85.429688 46.480469 L 84.070312 50.515625 L 84.070312 14.070312 L 34.730469 42.5625 L 34.65625 42.613281 L 34.65625 88.328125 L 45.621094 82 L 45.046875 84.746094 L 9.199219 105.453125 L 9.199219 58.636719 C 9.199219 55.605469 10.824219 52.785156 13.449219 51.28125 L 85.910156 9.410156 C 86.746094 8.933594 87.773438 9.53125 87.773438 10.484375 Z M 38.957031 74.472656 L 36.640625 85.4375 L 37.882812 86.15625 L 37.882812 86.179688 L 34.894531 87.898438 L 34.894531 76.839844 Z M 34.917969 76.527344 L 34.917969 65.542969 L 41.703125 61.601562 L 39.050781 74.140625 Z M 42.5625 61.097656 L 44.496094 59.976562 L 44.496094 62.125 Z M 42.300781 60.957031 L 41.871094 60.714844 L 41.75 61.265625 L 34.894531 65.253906 L 34.894531 54.265625 L 44.472656 48.703125 L 44.472656 59.691406 Z M 34.917969 53.980469 L 34.917969 42.753906 L 44.496094 37.214844 L 44.496094 48.414062 Z M 32.386719 88.113281 C 32.363281 88.375 32.292969 88.636719 32.125 88.902344 C 31.933594 89.234375 31.671875 89.5 31.363281 89.664062 C 31.097656 89.808594 30.90625 89.855469 30.742188 89.808594 C 30.597656 89.761719 30.5 89.617188 30.5 89.402344 L 30.859375 89.164062 C 30.882812 89.332031 30.929688 89.425781 31.027344 89.449219 C 31.121094 89.472656 31.242188 89.449219 31.386719 89.378906 C 31.550781 89.285156 31.695312 89.140625 31.816406 88.949219 C 31.933594 88.757812 32.007812 88.566406 32.03125 88.351562 C 32.054688 88.160156 32.007812 88.042969 31.886719 87.992188 C 31.792969 87.945312 31.648438 87.96875 31.457031 88.066406 C 31.335938 88.136719 31.242188 88.207031 31.144531 88.304688 C 31.050781 88.398438 30.980469 88.519531 30.929688 88.613281 L 30.597656 88.757812 L 30.957031 87.15625 L 32.363281 86.34375 L 32.339844 86.679688 L 31.21875 87.324219 L 31.027344 88.160156 C 31.195312 87.945312 31.386719 87.777344 31.578125 87.683594 C 31.816406 87.539062 32.03125 87.492188 32.171875 87.5625 C 32.316406 87.683594 32.386719 87.851562 32.386719 88.113281 Z M 29.5 75.574219 L 29.714844 75.453125 L 29.546875 78.273438 L 29.1875 78.464844 L 29.332031 76.265625 C 29.234375 76.386719 29.117188 76.527344 28.996094 76.695312 C 28.855469 76.863281 28.734375 76.984375 28.613281 77.078125 L 28.640625 76.742188 C 28.828125 76.550781 29.019531 76.335938 29.164062 76.121094 C 29.332031 75.90625 29.449219 75.714844 29.5 75.574219 Z M 32.195312 74.332031 C 32.125 74.257812 32.03125 74.234375 31.933594 74.234375 C 31.816406 74.234375 31.695312 74.285156 31.550781 74.378906 C 31.335938 74.5 31.171875 74.640625 31.027344 74.832031 C 30.882812 75.023438 30.765625 75.238281 30.691406 75.476562 C 30.621094 75.714844 30.550781 76.003906 30.550781 76.335938 C 30.527344 76.863281 30.597656 77.199219 30.765625 77.316406 C 30.90625 77.414062 31.121094 77.386719 31.386719 77.246094 C 31.601562 77.125 31.765625 76.984375 31.910156 76.792969 C 32.054688 76.601562 32.171875 76.386719 32.246094 76.148438 C 32.316406 75.90625 32.386719 75.621094 32.386719 75.285156 C 32.414062 75 32.386719 74.808594 32.363281 74.664062 C 32.316406 74.523438 32.269531 74.402344 32.195312 74.332031 Z M 32.007812 75.476562 C 31.980469 75.929688 31.910156 76.265625 31.792969 76.480469 C 31.671875 76.695312 31.527344 76.839844 31.386719 76.933594 C 31.21875 77.03125 31.097656 77.03125 31.003906 76.933594 C 30.90625 76.839844 30.859375 76.578125 30.90625 76.121094 C 30.929688 75.667969 31.027344 75.308594 31.144531 75.070312 C 31.242188 74.878906 31.386719 74.738281 31.550781 74.640625 C 31.71875 74.546875 31.839844 74.546875 31.933594 74.640625 C 32.007812 74.761719 32.054688 75.023438 32.007812 75.476562 Z M 29.210938 67.285156 L 29.355469 65.085938 C 29.257812 65.207031 29.140625 65.351562 29.019531 65.515625 C 28.878906 65.683594 28.757812 65.804688 28.640625 65.898438 L 28.664062 65.566406 C 28.855469 65.375 29.042969 65.160156 29.1875 64.945312 C 29.332031 64.730469 29.449219 64.539062 29.523438 64.394531 L 29.738281 64.277344 L 29.570312 67.09375 Z M 31.816406 65.375 C 31.933594 65.183594 32.007812 64.992188 32.03125 64.777344 C 32.054688 64.585938 32.007812 64.464844 31.886719 64.417969 C 31.792969 64.371094 31.648438 64.394531 31.457031 64.492188 C 31.335938 64.5625 31.242188 64.632812 31.144531 64.753906 C 31.050781 64.847656 30.980469 64.96875 30.929688 65.0625 L 30.597656 65.207031 L 30.957031 63.605469 L 32.363281 62.792969 L 32.339844 63.128906 L 31.21875 63.773438 L 31.027344 64.609375 C 31.195312 64.394531 31.386719 64.226562 31.578125 64.132812 C 31.816406 63.988281 32.03125 63.941406 32.195312 64.011719 C 32.363281 64.085938 32.4375 64.25 32.414062 64.515625 C 32.386719 64.777344 32.316406 65.039062 32.148438 65.300781 C 31.957031 65.636719 31.695312 65.898438 31.386719 66.066406 C 31.121094 66.210938 30.929688 66.257812 30.765625 66.210938 C 30.621094 66.164062 30.527344 66.019531 30.527344 65.804688 L 30.882812 65.566406 C 30.90625 65.734375 30.957031 65.828125 31.050781 65.851562 C 31.144531 65.875 31.265625 65.851562 31.410156 65.78125 C 31.527344 65.707031 31.671875 65.566406 31.816406 65.375 Z M 30.191406 53.621094 C 30.191406 53.742188 30.144531 53.863281 30.09375 53.980469 C 30.046875 54.125 29.953125 54.265625 29.832031 54.457031 C 29.714844 54.648438 29.523438 54.914062 29.257812 55.269531 C 29.042969 55.558594 28.902344 55.75 28.828125 55.84375 C 28.757812 55.941406 28.710938 56.035156 28.664062 56.105469 L 30.046875 55.292969 L 30.023438 55.628906 L 28.160156 56.703125 C 28.160156 56.632812 28.183594 56.535156 28.207031 56.441406 C 28.257812 56.296875 28.351562 56.128906 28.472656 55.941406 C 28.589844 55.75 28.734375 55.535156 28.949219 55.246094 C 29.285156 54.816406 29.5 54.507812 29.617188 54.292969 C 29.738281 54.078125 29.808594 53.910156 29.808594 53.789062 C 29.808594 53.648438 29.785156 53.574219 29.691406 53.527344 C 29.59375 53.480469 29.476562 53.527344 29.308594 53.597656 C 29.140625 53.695312 28.996094 53.8125 28.902344 53.980469 C 28.804688 54.148438 28.734375 54.316406 28.734375 54.484375 L 28.375 54.648438 C 28.421875 54.363281 28.519531 54.125 28.6875 53.886719 C 28.855469 53.648438 29.070312 53.457031 29.332031 53.3125 C 29.59375 53.144531 29.808594 53.097656 29.953125 53.167969 C 30.144531 53.265625 30.214844 53.382812 30.191406 53.621094 Z M 32.195312 52.046875 C 32.125 51.972656 32.03125 51.949219 31.933594 51.949219 C 31.816406 51.949219 31.695312 52 31.550781 52.09375 C 31.335938 52.214844 31.171875 52.355469 31.027344 52.546875 C 30.882812 52.738281 30.765625 52.953125 30.691406 53.191406 C 30.621094 53.429688 30.550781 53.71875 30.550781 54.050781 C 30.527344 54.578125 30.597656 54.914062 30.765625 55.03125 C 30.90625 55.128906 31.121094 55.101562 31.386719 54.960938 C 31.601562 54.839844 31.765625 54.699219 31.910156 54.507812 C 32.054688 54.316406 32.171875 54.101562 32.246094 53.863281 C 32.316406 53.621094 32.386719 53.335938 32.386719 53 C 32.414062 52.714844 32.386719 52.523438 32.363281 52.378906 C 32.316406 52.214844 32.269531 52.117188 32.195312 52.046875 Z M 32.007812 53.191406 C 31.980469 53.648438 31.910156 53.980469 31.792969 54.195312 C 31.671875 54.410156 31.527344 54.554688 31.386719 54.648438 C 31.21875 54.746094 31.097656 54.746094 31.003906 54.648438 C 30.90625 54.554688 30.859375 54.292969 30.90625 53.835938 C 30.929688 53.382812 31.027344 53.027344 31.144531 52.785156 C 31.242188 52.59375 31.386719 52.453125 31.550781 52.355469 C 31.71875 52.261719 31.839844 52.261719 31.933594 52.355469 C 32.007812 52.453125 32.054688 52.714844 32.007812 53.191406 Z M 32.007812 53.191406 " fill-opacity="1" fill-rule="nonzero"/><path fill="#e29417" d="M 54.21875 100.246094 L 54.957031 101.320312 L 54.957031 103.972656 C 54.980469 105.167969 54.191406 106.386719 52.617188 107.292969 C 51.375 108.007812 49.824219 108.441406 48.199219 108.582031 C 45.761719 109.515625 42.539062 108.84375 40.652344 107.769531 C 39.074219 106.886719 37.808594 105.453125 37.808594 104.257812 L 38.882812 101.609375 L 38.882812 101.320312 L 39.816406 99.984375 C 40.078125 99.769531 41.488281 98.457031 41.796875 98.265625 C 44.925781 96.449219 49.894531 97 53.023438 98.8125 C 53.355469 99.003906 53.953125 100.03125 54.21875 100.246094 Z M 38.359375 109.324219 C 35.230469 107.507812 30.621094 107.507812 27.492188 109.324219 C 27.15625 109.515625 26.347656 110.707031 26.082031 110.921875 L 24.914062 112.214844 L 24.914062 114.886719 C 24.914062 116.082031 25.703125 117.277344 27.253906 118.183594 C 30.382812 120 35.515625 120 38.644531 118.183594 C 40.222656 117.277344 41.011719 116.058594 40.984375 114.863281 L 40.984375 112.214844 L 39.816406 110.804688 C 39.554688 110.589844 38.691406 109.515625 38.359375 109.324219 Z M 100.789062 84.699219 C 100.527344 84.484375 98.996094 83.289062 98.664062 83.097656 C 95.535156 81.28125 91.117188 81.878906 87.988281 83.671875 C 87.652344 83.863281 87.128906 84.769531 86.886719 84.960938 L 85.8125 86.128906 L 85.8125 87.898438 L 85.648438 87.898438 C 85.742188 87.585938 85.8125 87.277344 85.8125 86.964844 L 85.8125 84.292969 L 84.761719 82.691406 C 84.5 82.476562 82.925781 81.328125 82.613281 81.136719 C 80.632812 79.992188 78.171875 79.824219 75.808594 80.300781 L 70.71875 83.242188 L 69.71875 84.292969 L 69.71875 86.941406 C 69.71875 87.707031 70.003906 88.472656 70.648438 89.164062 L 70.648438 90.550781 C 70.625 91.742188 71.339844 93.390625 73.679688 93.296875 C 73.679688 93.75 73.65625 93.964844 73.679688 94.25 C 76.832031 95.707031 81.46875 95.589844 84.378906 93.894531 C 85.789062 93.082031 86.554688 92.054688 86.699219 90.980469 C 87.054688 91.386719 87.558594 91.765625 88.152344 92.125 C 91.28125 93.941406 96.417969 93.941406 99.546875 92.125 C 101.121094 91.21875 101.886719 90.023438 101.886719 88.828125 L 101.886719 86.15625 Z M 81.492188 58.28125 L 82.734375 54.554688 L 82.734375 44.355469 L 80.273438 40.175781 L 76.761719 50.039062 L 68.355469 47.4375 L 65.539062 51.542969 L 59.066406 47.914062 L 55.746094 60.429688 L 47.960938 57.46875 L 46.121094 63.058594 L 43.136719 61.457031 L 37.90625 86.15625 L 45.714844 81.640625 L 48.460938 68.429688 L 53.214844 63.511719 L 54.167969 60.90625 L 61.214844 61.503906 L 63.363281 56.894531 L 68.570312 58.757812 L 72.34375 53.027344 Z M 81.492188 58.28125 " fill-opacity="1" fill-rule="nonzero"/><path fill="#778dfc" d="M 6.976562 118.089844 L 1.554688 114.960938 C 0.695312 114.457031 0.0742188 113.527344 0.0742188 112.378906 L 0.21875 53.886719 C 0.21875 49.847656 2.390625 46.097656 5.902344 44.09375 L 81.945312 0.429688 C 82.710938 0 83.542969 0.046875 84.238281 0.40625 L 84.261719 0.429688 C 84.285156 0.429688 84.285156 0.453125 84.308594 0.453125 L 89.277344 3.34375 C 88.65625 3.105469 87.914062 3.105469 87.246094 3.488281 L 11.324219 47.339844 C 7.8125 49.371094 5.664062 53.097656 5.664062 57.15625 L 5.664062 115.652344 C 5.664062 116.703125 6.1875 117.5625 6.976562 118.089844 Z M 73.132812 94.203125 L 54.863281 104.761719 C 54.933594 104.5 54.957031 104.234375 54.957031 103.996094 L 54.957031 101.34375 L 54.21875 100.269531 C 53.953125 100.054688 53.355469 99.027344 53.046875 98.835938 C 51.253906 97.808594 48.890625 97.191406 46.597656 97.191406 L 51.828125 94.179688 L 52.664062 94.65625 L 61.070312 88.828125 L 64.03125 87.132812 L 73.132812 92.386719 C 73.847656 92.769531 73.847656 93.796875 73.132812 94.203125 Z M 41.226562 107.316406 C 39.648438 106.410156 38.882812 105.214844 38.882812 104.019531 L 38.882812 101.609375 L 34.082031 104.378906 L 43.277344 109.65625 C 44.234375 110.207031 45.429688 110.207031 46.382812 109.65625 L 48.199219 108.605469 C 45.738281 108.820312 43.113281 108.390625 41.226562 107.316406 Z M 58.800781 74.808594 L 60.042969 75.527344 L 62.3125 77.171875 L 64.820312 69.171875 L 74.730469 73.375 L 76.976562 72.085938 L 79.03125 68.242188 L 83.640625 68.242188 L 84.046875 68 L 89.660156 53.480469 L 90.136719 53.742188 L 90.136719 49.96875 L 86.699219 47.199219 L 82.757812 58.996094 L 73.609375 53.71875 L 69.835938 59.449219 L 64.628906 57.585938 L 62.480469 62.199219 L 55.433594 61.625 L 54.480469 64.226562 L 49.679688 69.148438 L 45.261719 90.382812 L 54.933594 84.792969 Z M 58.800781 74.808594 " fill-opacity="1" fill-rule="nonzero"/><path fill="#fecf47" d="M 99.523438 82.929688 C 96.394531 81.113281 91.257812 81.113281 88.128906 82.929688 C 86.722656 83.742188 85.957031 84.792969 85.8125 85.84375 C 85.8125 85.84375 85.789062 85.820312 85.789062 85.820312 L 85.789062 86.992188 C 85.789062 88.183594 85 89.378906 83.449219 90.285156 C 80.320312 92.101562 75.1875 92.101562 72.058594 90.285156 C 71.722656 90.09375 71.4375 89.878906 71.171875 89.664062 C 71.554688 90.261719 72.175781 90.8125 72.988281 91.289062 C 76.117188 93.105469 81.253906 93.105469 84.378906 91.289062 C 85.789062 90.476562 86.554688 89.425781 86.699219 88.375 C 87.054688 88.78125 87.558594 89.164062 88.152344 89.523438 C 91.28125 91.335938 96.417969 91.335938 99.546875 89.523438 C 102.675781 87.707031 102.652344 84.746094 99.523438 82.929688 Z M 92.5 88.398438 L 92.5 88.878906 C 92.5 88.925781 92.476562 88.972656 92.40625 88.996094 C 92.359375 89.042969 92.285156 89.042969 92.214844 89.070312 C 92.144531 89.070312 92.070312 89.042969 91.976562 88.996094 L 90.207031 87.96875 C 90.136719 87.921875 90.089844 87.875 90.089844 87.828125 L 90.089844 87.347656 C 90.089844 87.398438 90.113281 87.445312 90.207031 87.492188 L 91.976562 88.519531 C 92.046875 88.566406 92.144531 88.589844 92.214844 88.589844 C 92.285156 88.589844 92.359375 88.566406 92.40625 88.519531 C 92.476562 88.472656 92.5 88.449219 92.5 88.398438 Z M 94.484375 84.027344 C 94.410156 83.980469 94.363281 83.933594 94.363281 83.886719 C 94.363281 83.886719 94.363281 83.863281 94.363281 83.863281 C 94.363281 83.863281 94.363281 83.527344 94.363281 83.457031 C 94.386719 83.480469 94.410156 83.527344 94.484375 83.550781 L 94.675781 83.671875 L 94.507812 84.027344 Z M 97.230469 85.152344 L 97.5625 85.34375 L 97.109375 85.4375 L 97.109375 85.007812 C 97.109375 85.054688 97.15625 85.101562 97.230469 85.152344 Z M 95.917969 84.433594 C 95.917969 84.484375 95.890625 84.53125 95.820312 84.554688 C 95.75 84.601562 95.699219 84.625 95.628906 84.625 C 95.558594 84.625 95.484375 84.601562 95.390625 84.554688 L 95.054688 84.363281 L 94.269531 86.035156 L 94.03125 86.082031 L 95.054688 83.886719 L 95.390625 84.078125 C 95.460938 84.125 95.558594 84.148438 95.628906 84.148438 C 95.699219 84.148438 95.773438 84.125 95.820312 84.078125 C 95.890625 84.027344 95.917969 84.003906 95.917969 83.957031 Z M 92.214844 85.605469 C 92.214844 85.628906 92.238281 85.675781 92.285156 85.699219 L 93.359375 86.320312 L 92.980469 86.558594 L 92.285156 86.15625 C 92.238281 86.128906 92.214844 86.082031 92.214844 86.058594 Z M 91.257812 86.371094 L 92.332031 86.992188 L 91.953125 87.230469 L 91.257812 86.824219 C 91.210938 86.800781 91.1875 86.75 91.1875 86.726562 L 91.1875 86.25 C 91.164062 86.296875 91.210938 86.34375 91.257812 86.371094 Z M 94.148438 88.183594 C 94.148438 88.207031 94.125 88.257812 94.078125 88.28125 C 94.03125 88.304688 93.980469 88.328125 93.933594 88.328125 C 93.886719 88.328125 93.8125 88.304688 93.765625 88.28125 L 92.691406 87.660156 L 92.070312 88.066406 L 91.6875 87.851562 L 92.691406 87.207031 L 93.765625 87.828125 C 93.8125 87.851562 93.886719 87.875 93.933594 87.875 C 93.980469 87.875 94.03125 87.851562 94.078125 87.828125 C 94.125 87.800781 94.148438 87.777344 94.148438 87.730469 Z M 95.175781 87.515625 C 95.175781 87.539062 95.152344 87.585938 95.105469 87.613281 C 95.054688 87.636719 95.007812 87.660156 94.960938 87.660156 C 94.914062 87.660156 94.867188 87.636719 94.792969 87.613281 L 93.71875 86.992188 L 93.335938 87.230469 L 92.953125 87.015625 L 93.71875 86.511719 L 94.792969 87.132812 C 94.839844 87.15625 94.914062 87.179688 94.960938 87.179688 C 95.007812 87.179688 95.054688 87.15625 95.105469 87.132812 C 95.152344 87.109375 95.175781 87.085938 95.175781 87.039062 Z M 98.664062 86.011719 C 98.664062 86.058594 98.640625 86.105469 98.566406 86.128906 C 98.496094 86.179688 98.449219 86.203125 98.375 86.203125 C 98.304688 86.203125 98.234375 86.179688 98.136719 86.128906 L 97.945312 86.011719 L 94.699219 86.703125 L 94.101562 86.371094 L 97.921875 85.558594 L 98.113281 85.675781 C 98.183594 85.722656 98.28125 85.75 98.351562 85.75 C 98.421875 85.75 98.496094 85.722656 98.542969 85.675781 C 98.613281 85.628906 98.640625 85.605469 98.640625 85.558594 L 98.640625 86.011719 Z M 100.667969 86.535156 C 100.550781 85.628906 99.878906 84.746094 98.6875 84.050781 C 96.011719 82.5 91.640625 82.5 88.964844 84.050781 C 87.773438 84.746094 87.101562 85.628906 86.984375 86.535156 C 86.839844 85.414062 87.484375 84.265625 88.964844 83.40625 C 91.640625 81.855469 96.011719 81.855469 98.6875 83.40625 C 100.167969 84.265625 100.835938 85.414062 100.667969 86.535156 Z M 72.058594 87.660156 C 75.1875 89.472656 80.320312 89.472656 83.449219 87.660156 C 86.578125 85.84375 86.578125 82.882812 83.449219 81.089844 C 82.0625 80.277344 80.25 79.847656 78.433594 79.753906 L 97.515625 68.71875 L 97.515625 55.699219 L 95.054688 58.878906 L 90.925781 54.171875 L 85.242188 68.933594 L 80.320312 68.933594 L 77.265625 74.617188 L 66.0625 69.863281 L 63.554688 77.867188 L 60.042969 75.5 L 52.878906 94.035156 L 52.664062 94.609375 L 69.742188 84.746094 C 69.882812 85.820312 70.648438 86.871094 72.058594 87.660156 Z M 78.386719 82.191406 C 78.316406 82.140625 78.265625 82.09375 78.265625 82.046875 C 78.265625 82.046875 78.265625 82.023438 78.265625 82.023438 C 78.265625 82.023438 78.265625 81.6875 78.265625 81.617188 C 78.289062 81.640625 78.316406 81.6875 78.386719 81.710938 L 78.578125 81.832031 L 78.410156 82.191406 Z M 81.15625 83.3125 L 81.492188 83.503906 L 81.039062 83.597656 L 81.039062 83.167969 C 81.039062 83.214844 81.0625 83.265625 81.15625 83.3125 Z M 79.820312 82.59375 C 79.820312 82.644531 79.796875 82.691406 79.722656 82.714844 C 79.652344 82.761719 79.605469 82.785156 79.53125 82.785156 C 79.460938 82.785156 79.390625 82.761719 79.292969 82.714844 L 78.960938 82.523438 L 78.171875 84.195312 L 77.933594 84.242188 L 78.960938 82.046875 L 79.292969 82.238281 C 79.367188 82.285156 79.460938 82.308594 79.53125 82.308594 C 79.605469 82.308594 79.675781 82.285156 79.722656 82.238281 C 79.796875 82.191406 79.820312 82.164062 79.820312 82.117188 Z M 76.140625 83.765625 C 76.140625 83.789062 76.164062 83.835938 76.214844 83.863281 L 77.289062 84.484375 L 76.90625 84.722656 L 76.214844 84.316406 C 76.164062 84.292969 76.140625 84.242188 76.140625 84.21875 Z M 75.160156 84.53125 L 76.238281 85.152344 L 75.855469 85.390625 L 75.160156 84.984375 C 75.113281 84.960938 75.089844 84.914062 75.089844 84.886719 L 75.089844 84.410156 C 75.089844 84.484375 75.113281 84.507812 75.160156 84.53125 Z M 76.429688 87.015625 C 76.429688 87.0625 76.402344 87.109375 76.332031 87.132812 C 76.285156 87.179688 76.214844 87.179688 76.140625 87.207031 C 76.070312 87.207031 75.996094 87.179688 75.902344 87.132812 L 74.136719 86.105469 C 74.0625 86.058594 74.015625 86.011719 74.015625 85.964844 L 74.015625 85.484375 C 74.015625 85.535156 74.039062 85.582031 74.136719 85.628906 L 75.902344 86.65625 C 75.972656 86.703125 76.070312 86.726562 76.140625 86.726562 C 76.214844 86.726562 76.285156 86.703125 76.332031 86.65625 C 76.402344 86.609375 76.429688 86.585938 76.429688 86.535156 Z M 78.050781 86.34375 C 78.050781 86.371094 78.027344 86.417969 77.980469 86.441406 C 77.933594 86.464844 77.882812 86.488281 77.835938 86.488281 C 77.789062 86.488281 77.71875 86.464844 77.667969 86.441406 L 76.59375 85.820312 L 75.972656 86.226562 L 75.59375 86.011719 L 76.59375 85.367188 L 77.667969 85.988281 C 77.71875 86.011719 77.789062 86.035156 77.835938 86.035156 C 77.882812 86.035156 77.933594 86.011719 77.980469 85.988281 C 78.027344 85.964844 78.050781 85.941406 78.050781 85.890625 Z M 79.101562 85.675781 C 79.101562 85.699219 79.078125 85.75 79.03125 85.773438 C 78.984375 85.796875 78.9375 85.820312 78.886719 85.820312 C 78.839844 85.820312 78.792969 85.796875 78.71875 85.773438 L 77.644531 85.152344 L 77.265625 85.390625 L 76.882812 85.175781 L 77.644531 84.671875 L 78.71875 85.292969 C 78.769531 85.320312 78.839844 85.34375 78.886719 85.34375 C 78.9375 85.34375 78.984375 85.320312 79.03125 85.292969 C 79.078125 85.269531 79.101562 85.246094 79.101562 85.199219 Z M 82.589844 84.171875 C 82.589844 84.21875 82.566406 84.265625 82.492188 84.292969 C 82.421875 84.339844 82.375 84.363281 82.304688 84.363281 C 82.230469 84.363281 82.160156 84.339844 82.0625 84.292969 L 81.875 84.171875 L 78.625 84.863281 L 78.027344 84.53125 L 81.847656 83.71875 L 82.039062 83.835938 C 82.113281 83.886719 82.207031 83.910156 82.277344 83.910156 C 82.351562 83.910156 82.421875 83.886719 82.46875 83.835938 C 82.542969 83.789062 82.566406 83.765625 82.566406 83.71875 L 82.566406 84.171875 Z M 82.613281 81.570312 C 84.09375 82.429688 84.738281 83.574219 84.597656 84.699219 C 84.476562 83.789062 83.808594 82.90625 82.613281 82.214844 C 80.796875 81.164062 78.242188 80.828125 75.925781 81.210938 L 77.265625 80.445312 C 79.175781 80.351562 81.15625 80.734375 82.613281 81.570312 Z M 71.125 83.957031 C 71.007812 84.195312 70.933594 84.433594 70.910156 84.699219 C 70.886719 84.507812 70.886719 84.292969 70.910156 84.101562 Z M 38.644531 109.011719 C 35.515625 107.199219 30.382812 107.199219 27.253906 109.011719 C 24.125 110.828125 24.125 113.789062 27.253906 115.582031 C 30.382812 117.371094 35.515625 117.398438 38.644531 115.582031 C 41.773438 113.765625 41.773438 110.828125 38.644531 109.011719 Z M 28.640625 112.238281 C 28.566406 112.285156 28.472656 112.308594 28.398438 112.308594 C 28.328125 112.308594 28.257812 112.285156 28.207031 112.238281 C 28.136719 112.191406 28.113281 112.164062 28.113281 112.117188 L 28.113281 111.640625 C 28.113281 111.6875 28.136719 111.734375 28.207031 111.757812 C 28.28125 111.808594 28.328125 111.832031 28.398438 111.832031 C 28.472656 111.832031 28.542969 111.808594 28.640625 111.757812 L 28.828125 111.640625 L 32.652344 112.453125 L 32.054688 112.785156 L 28.804688 112.09375 Z M 31.71875 110.46875 L 31.386719 110.660156 C 31.3125 110.707031 31.21875 110.734375 31.144531 110.734375 C 31.074219 110.734375 31.003906 110.707031 30.957031 110.660156 C 30.882812 110.613281 30.859375 110.589844 30.859375 110.542969 L 30.859375 110.0625 C 30.859375 110.113281 30.882812 110.160156 30.957031 110.183594 C 31.027344 110.230469 31.074219 110.253906 31.144531 110.253906 C 31.21875 110.253906 31.289062 110.230469 31.386719 110.183594 L 31.71875 109.992188 L 32.746094 112.191406 L 32.507812 112.140625 Z M 34.488281 111.785156 C 34.539062 111.757812 34.5625 111.710938 34.5625 111.6875 L 34.5625 112.164062 C 34.5625 112.191406 34.539062 112.238281 34.488281 112.261719 L 33.796875 112.667969 L 33.414062 112.429688 Z M 35.515625 112.453125 C 35.566406 112.429688 35.589844 112.378906 35.589844 112.355469 L 35.589844 112.835938 C 35.589844 112.859375 35.566406 112.90625 35.515625 112.929688 L 34.824219 113.335938 L 34.441406 113.097656 Z M 32.101562 109.753906 L 32.292969 109.632812 C 32.363281 109.585938 32.386719 109.5625 32.414062 109.539062 C 32.414062 109.632812 32.414062 109.945312 32.414062 109.945312 C 32.414062 109.945312 32.414062 109.96875 32.414062 109.96875 C 32.414062 110.015625 32.363281 110.0625 32.292969 110.113281 L 32.269531 110.136719 Z M 29.210938 111.425781 L 29.546875 111.234375 C 29.617188 111.1875 29.664062 111.136719 29.664062 111.089844 L 29.664062 111.519531 Z M 31.816406 113.742188 C 31.765625 113.742188 31.71875 113.71875 31.671875 113.695312 C 31.625 113.671875 31.601562 113.648438 31.601562 113.597656 L 31.601562 113.121094 C 31.601562 113.144531 31.625 113.191406 31.671875 113.214844 C 31.71875 113.242188 31.765625 113.265625 31.816406 113.265625 C 31.863281 113.265625 31.910156 113.242188 31.980469 113.214844 L 33.058594 112.59375 L 33.820312 113.097656 L 33.4375 113.3125 L 33.058594 113.074219 L 31.980469 113.695312 C 31.910156 113.71875 31.863281 113.742188 31.816406 113.742188 Z M 33.007812 114.363281 C 32.960938 114.386719 32.890625 114.410156 32.84375 114.410156 C 32.792969 114.410156 32.746094 114.386719 32.699219 114.363281 C 32.652344 114.339844 32.628906 114.316406 32.628906 114.265625 L 32.628906 113.789062 C 32.628906 113.8125 32.652344 113.863281 32.699219 113.886719 C 32.746094 113.910156 32.792969 113.933594 32.84375 113.933594 C 32.890625 113.933594 32.960938 113.910156 33.007812 113.886719 L 34.082031 113.265625 L 35.085938 113.910156 L 34.703125 114.125 L 34.082031 113.71875 Z M 36.6875 113.910156 C 36.6875 113.957031 36.664062 114.003906 36.566406 114.050781 L 34.800781 115.078125 C 34.730469 115.128906 34.632812 115.152344 34.5625 115.152344 C 34.488281 115.152344 34.417969 115.128906 34.371094 115.078125 C 34.300781 115.03125 34.273438 115.007812 34.273438 114.960938 L 34.273438 114.484375 C 34.273438 114.53125 34.300781 114.578125 34.371094 114.601562 C 34.417969 114.648438 34.488281 114.648438 34.5625 114.671875 C 34.632812 114.671875 34.703125 114.648438 34.800781 114.601562 L 36.566406 113.574219 C 36.640625 113.527344 36.6875 113.480469 36.6875 113.429688 Z M 39.792969 112.621094 C 39.671875 111.710938 39.003906 110.828125 37.808594 110.136719 C 35.136719 108.582031 30.765625 108.582031 28.089844 110.136719 C 26.894531 110.828125 26.226562 111.710938 26.105469 112.621094 C 25.964844 111.496094 26.609375 110.351562 28.089844 109.492188 C 30.765625 107.9375 35.136719 107.9375 37.808594 109.492188 C 39.289062 110.351562 39.960938 111.496094 39.792969 112.621094 Z M 52.617188 98.144531 C 49.488281 96.328125 44.351562 96.328125 41.226562 98.144531 C 38.097656 99.960938 38.097656 102.921875 41.226562 104.714844 C 44.351562 106.527344 49.488281 106.527344 52.617188 104.714844 C 55.746094 102.898438 55.746094 99.9375 52.617188 98.144531 Z M 42.609375 101.34375 C 42.539062 101.394531 42.441406 101.417969 42.371094 101.417969 C 42.300781 101.417969 42.226562 101.394531 42.179688 101.34375 C 42.109375 101.296875 42.085938 101.273438 42.085938 101.226562 L 42.085938 100.75 C 42.085938 100.796875 42.109375 100.84375 42.179688 100.867188 C 42.25 100.914062 42.300781 100.941406 42.371094 100.941406 C 42.441406 100.941406 42.515625 100.914062 42.609375 100.867188 L 42.800781 100.75 L 46.621094 101.558594 L 46.023438 101.894531 L 42.777344 101.203125 Z M 45.691406 99.578125 L 45.355469 99.769531 C 45.285156 99.816406 45.1875 99.839844 45.117188 99.839844 C 45.046875 99.839844 44.972656 99.816406 44.925781 99.769531 C 44.855469 99.722656 44.832031 99.699219 44.832031 99.648438 L 44.832031 99.171875 C 44.832031 99.21875 44.855469 99.265625 44.925781 99.292969 C 45 99.339844 45.046875 99.363281 45.117188 99.363281 C 45.1875 99.363281 45.261719 99.339844 45.355469 99.292969 L 45.691406 99.101562 L 46.71875 101.296875 L 46.480469 101.25 Z M 49.582031 101.941406 C 49.582031 101.964844 49.558594 102.015625 49.511719 102.039062 L 48.820312 102.445312 L 48.4375 102.207031 L 49.511719 101.585938 C 49.558594 101.558594 49.582031 101.511719 49.582031 101.488281 Z M 48.53125 101.273438 C 48.53125 101.296875 48.507812 101.34375 48.460938 101.371094 L 47.769531 101.777344 L 47.386719 101.535156 L 48.460938 100.914062 C 48.507812 100.890625 48.53125 100.84375 48.53125 100.820312 Z M 46.074219 98.886719 L 46.265625 98.765625 C 46.335938 98.71875 46.359375 98.695312 46.382812 98.671875 C 46.382812 98.765625 46.382812 99.078125 46.382812 99.078125 C 46.382812 99.078125 46.382812 99.101562 46.382812 99.101562 C 46.382812 99.148438 46.335938 99.195312 46.265625 99.242188 L 46.242188 99.265625 Z M 43.636719 100.628906 L 43.183594 100.535156 L 43.519531 100.34375 C 43.589844 100.292969 43.636719 100.246094 43.636719 100.199219 Z M 45.785156 102.851562 C 45.738281 102.851562 45.691406 102.828125 45.644531 102.800781 C 45.59375 102.777344 45.570312 102.753906 45.570312 102.707031 L 45.570312 102.230469 C 45.570312 102.253906 45.59375 102.300781 45.644531 102.324219 C 45.691406 102.347656 45.738281 102.371094 45.785156 102.371094 C 45.835938 102.371094 45.882812 102.347656 45.953125 102.324219 L 47.027344 101.703125 L 47.792969 102.207031 L 47.410156 102.421875 L 47.027344 102.179688 L 45.953125 102.800781 C 45.882812 102.851562 45.835938 102.851562 45.785156 102.851562 Z M 46.980469 103.496094 C 46.933594 103.519531 46.859375 103.542969 46.8125 103.542969 C 46.765625 103.542969 46.71875 103.519531 46.671875 103.496094 C 46.621094 103.472656 46.597656 103.449219 46.597656 103.398438 L 46.597656 102.921875 C 46.597656 102.945312 46.621094 102.992188 46.671875 103.015625 C 46.71875 103.042969 46.765625 103.066406 46.8125 103.066406 C 46.859375 103.066406 46.933594 103.042969 46.980469 103.015625 L 48.054688 102.394531 L 49.058594 103.042969 L 48.675781 103.257812 L 48.054688 102.851562 Z M 50.660156 103.042969 C 50.660156 103.089844 50.632812 103.136719 50.539062 103.183594 L 48.773438 104.210938 C 48.699219 104.257812 48.605469 104.285156 48.53125 104.285156 C 48.460938 104.285156 48.390625 104.257812 48.34375 104.210938 C 48.269531 104.164062 48.246094 104.140625 48.246094 104.09375 L 48.246094 103.613281 C 48.246094 103.664062 48.269531 103.710938 48.34375 103.734375 C 48.390625 103.78125 48.460938 103.78125 48.53125 103.804688 C 48.605469 103.804688 48.675781 103.78125 48.773438 103.734375 L 50.539062 102.707031 C 50.609375 102.660156 50.660156 102.613281 50.660156 102.5625 Z M 53.761719 101.75 C 53.644531 100.84375 52.976562 99.960938 51.78125 99.265625 C 49.105469 97.714844 44.734375 97.714844 42.0625 99.265625 C 40.867188 99.960938 40.199219 100.84375 40.078125 101.75 C 39.933594 100.628906 40.578125 99.484375 42.0625 98.621094 C 44.734375 97.070312 49.105469 97.070312 51.78125 98.621094 C 53.261719 99.457031 53.929688 100.628906 53.761719 101.75 Z M 53.761719 101.75 " fill-opacity="1" fill-rule="nonzero"/></svg>